<?xml version="1.0" encoding="UTF-8" standalone="no"?>
<!-- Created with Inkscape (http://www.inkscape.org/) -->

<svg
   xmlns:dc="http://purl.org/dc/elements/1.1/"
   xmlns:cc="http://creativecommons.org/ns#"
   xmlns:rdf="http://www.w3.org/1999/02/22-rdf-syntax-ns#"
   xmlns:svg="http://www.w3.org/2000/svg"
   xmlns="http://www.w3.org/2000/svg"
   version="1.1"
   width="300"
   height="145.04166"
   id="svg5995">
  <defs
     id="defs5997">
    <clipPath
       id="clipPath5029">
      <path
         d="m 0,0 1280,0 0,960 L 0,960 0,0 Z"
         id="path5031" />
    </clipPath>
    <clipPath
       id="clipPath5045">
      <path
         d="m 0,0 1280,0 0,960 L 0,960 0,0 Z"
         id="path5047" />
    </clipPath>
    <clipPath
       id="clipPath5071">
      <path
         d="m 0,0 1280,0 0,960 L 0,960 0,0 Z"
         id="path5073" />
    </clipPath>
    <clipPath
       id="clipPath5093">
      <path
         d="m 0,0 1280,0 0,960 L 0,960 0,0 Z"
         id="path5095" />
    </clipPath>
  </defs>
  <metadata
     id="metadata6000">
    <rdf:RDF>
      <cc:Work
         rdf:about="">
        <dc:format>image/svg+xml</dc:format>
        <dc:type
           rdf:resource="http://purl.org/dc/dcmitype/StillImage" />
        <dc:title></dc:title>
      </cc:Work>
    </rdf:RDF>
  </metadata>
  <g
     transform="translate(-738.57143,-456.98421)"
     id="layer1">
    <g
       transform="matrix(1.0434783,0,0,1.0434783,682.27575,-306.9612)"
       id="g5862">
      <path
         d="m 53.95002,732.1147 42.0925,0 0,105.2675 -42.0925,0 L 53.95002,732.1147 Z"
         id="path5023"
         style="fill:#03203d;fill-opacity:1;fill-rule:nonzero;stroke:none" />
      <g
         transform="matrix(1.25,0,0,-1.25,-602.29998,1132.3622)"
         id="g5025">
        <g
           clip-path="url(#clipPath5029)"
           id="g5027">
          <g
             transform="translate(564.517,235.9843)"
             id="g5033">
            <path
               d="m 0,0 0,84.214 41.135,0 c 27.134,0 39.817,-16.578 39.817,-40.353 C 80.952,14.917 67.45,0 40.431,0 L 0,0 z m 27.604,19.649 5.849,0 c 12.865,0 19.884,6.785 19.884,22.691 0,17.545 -5.734,22.223 -20.47,22.223 l -5.263,0 L 27.604,19.649 Z"
               id="path5035"
               style="fill:#03203d;fill-opacity:1;fill-rule:nonzero;stroke:none" />
          </g>
        </g>
      </g>
      <g
         transform="matrix(1.25,0,0,-1.25,307.53077,732.11458)"
         id="g5037">
        <path
           d="m 0,0 -4.872,-52.049 -0.237,0 -12.015,50.613 -0.167,1.436 -0.174,0 -21.975,0 -0.174,0 -0.167,-1.436 -12.015,-50.613 -0.237,0 L -56.905,0 -84.04,0 l 14.416,-84.214 29.731,0 11.35,48.891 0.181,0 11.349,-48.891 29.732,0 L 27.135,0 0,0 Z"
           id="path5039"
           style="fill:#03203d;fill-opacity:1;fill-rule:nonzero;stroke:none" />
      </g>
      <g
         transform="matrix(1.25,0,0,-1.25,-602.29998,1132.3622)"
         id="g5041">
        <g
           clip-path="url(#clipPath5045)"
           id="g5043">
          <g
             transform="translate(525,209.4918)"
             id="g5049">
            <path
               d="m 0,0 0,18.544 8.856,0 c 5.282,0 7.834,-2.445 7.834,-6.258 C 16.69,8.294 14.343,5.77 9.06,5.77 L 6.023,5.77 6.023,0 0,0 z m 8.524,10.098 c 1.404,0 2.425,0.565 2.425,2.163 0,1.726 -1.94,1.958 -3.216,1.958 l -1.71,0 0,-4.121 L 8.524,10.098 Z"
               id="path5051"
               style="fill:#03203d;fill-opacity:1;fill-rule:nonzero;stroke:none" />
          </g>
          <g
             transform="translate(549.818,228.0362)"
             id="g5053">
            <path
               d="m 0,0 6.023,0 0,-11.101 c 0,-1.828 0.357,-3.399 2.833,-3.399 2.169,0 2.806,1.391 2.806,3.399 l 0,11.101 6.024,0 0,-10.482 c 0,-5.951 -2.731,-8.553 -8.83,-8.553 -5.692,0 -8.856,2.191 -8.856,8.579 L 0,0 Z"
               id="path5055"
               style="fill:#03203d;fill-opacity:1;fill-rule:nonzero;stroke:none" />
          </g>
          <g
             transform="translate(577.1859,209.4918)"
             id="g5057">
            <path
               d="m 0,0 0,18.544 8.779,0 c 4.134,0 7.427,-0.978 7.427,-4.661 0,-1.905 -1.226,-3.297 -2.4,-4.044 C 15.797,9.324 16.869,7.598 16.869,5.59 16.869,1.442 13.729,0 8.958,0 L 0,0 z m 6.023,14.219 0,-3.091 2.501,0 c 1.199,0 2.067,0.541 2.067,1.622 0,1.442 -1.174,1.469 -2.45,1.469 L 6.023,14.219 z m 0,-6.467 0,-3.424 2.629,0 c 1.48,0 2.603,0.309 2.603,1.698 0,1.624 -1.404,1.726 -3.319,1.726 L 6.023,7.752 Z"
               id="path5059"
               style="fill:#03203d;fill-opacity:1;fill-rule:nonzero;stroke:none" />
          </g>
        </g>
      </g>
      <g
         transform="matrix(1.25,0,0,-1.25,151.70352,870.49745)"
         id="g5061">
        <path
           d="m 0,0 0,18.544 6.024,0 0,-14.216 8.267,0 L 14.291,0 0,0 Z"
           id="path5063"
           style="fill:#03203d;fill-opacity:1;fill-rule:nonzero;stroke:none" />
      </g>
      <path
         d="m 180.55627,847.3172 7.52875,0 0,23.18 -7.52875,0 L 180.55627,847.3172 Z"
         id="path5065"
         style="fill:#03203d;fill-opacity:1;fill-rule:nonzero;stroke:none" />
      <g
         transform="matrix(1.25,0,0,-1.25,-602.29998,1132.3622)"
         id="g5067">
        <g
           clip-path="url(#clipPath5071)"
           id="g5069">
          <g
             transform="translate(651.6949,222.6548)"
             id="g5075">
            <path
               d="m 0,0 c -0.101,0.643 -0.433,1.029 -0.868,1.262 -0.434,0.232 -0.97,0.334 -1.556,0.334 -1.327,0 -1.913,-0.386 -1.913,-1.056 0,-2.781 10.564,-1.055 10.564,-7.804 0,-4.303 -3.546,-6.389 -8.599,-6.389 -4.849,0 -8.015,2.86 -8.142,6.208 l 5.768,0 c 0.127,-0.67 0.486,-1.159 0.995,-1.468 0.485,-0.308 1.124,-0.463 1.709,-0.463 1.507,0 2.502,0.489 2.502,1.365 0,2.807 -10.565,0.874 -10.565,7.959 0,3.941 3.367,5.924 7.963,5.924 C 2.961,5.872 5.283,3.245 5.717,0 L 0,0 Z"
               id="path5077"
               style="fill:#03203d;fill-opacity:1;fill-rule:nonzero;stroke:none" />
          </g>
        </g>
      </g>
      <g
         transform="matrix(1.25,0,0,-1.25,230.93127,870.49745)"
         id="g5079">
        <path
           d="m 0,0 0,18.544 6.023,0 0,-6.258 5.691,0 0,6.258 6.024,0 0,-18.544 -6.024,0 0,7.187 -5.691,0 L 6.023,0 0,0 Z"
           id="path5081"
           style="fill:#03203d;fill-opacity:1;fill-rule:nonzero;stroke:none" />
      </g>
      <path
         d="m 265.30252,847.3172 7.52875,0 0,23.18 -7.52875,0 L 265.30252,847.3172 Z"
         id="path5083"
         style="fill:#03203d;fill-opacity:1;fill-rule:nonzero;stroke:none" />
      <g
         transform="matrix(1.25,0,0,-1.25,300.31839,859.97007)"
         id="g5085">
        <path
           d="m 0,0 -0.23,4.226 0,5.897 5.768,0 0,-18.545 -5.64,0 -6.56,10.098 0.23,-4.226 0,-5.872 -5.766,0 0,18.545 5.64,0 L 0,0 Z"
           id="path5087"
           style="fill:#03203d;fill-opacity:1;fill-rule:nonzero;stroke:none" />
      </g>
      <g
         transform="matrix(1.25,0,0,-1.25,-602.29998,1132.3622)"
         id="g5089">
        <g
           clip-path="url(#clipPath5093)"
           id="g5091">
          <g
             transform="translate(755,219.6917)"
             id="g5097">
            <path
               d="m 0,0 -8.244,0 0,-4.017 2.207,0 c -0.456,-1.322 -1.446,-2.061 -2.83,-2.119 -1.017,0.038 -1.78,0.343 -2.33,0.853 -0.867,0.892 -1.294,2.423 -1.325,4.355 0.031,1.932 0.458,3.462 1.325,4.354 0.55,0.51 1.313,0.816 2.33,0.853 1.461,-0.061 2.503,-0.858 2.92,-2.321 l 5.717,0 c -0.74,4.559 -4.288,6.877 -8.702,6.877 -0.093,0 -0.172,-0.021 -0.266,-0.023 -0.151,0.007 -0.291,0.021 -0.449,0.021 -4.695,0 -8.906,-3.065 -8.906,-9.532 0,-0.079 0.017,-0.15 0.017,-0.229 0,-0.079 -0.017,-0.151 -0.017,-0.23 0,-6.467 4.211,-9.532 8.906,-9.532 0.158,0 0.298,0.014 0.449,0.021 0.094,-10e-4 0.173,-0.023 0.266,-0.023 4.414,0 7.962,2.319 8.702,6.878 L 0,0 Z"
               id="path5099"
               style="fill:#03203d;fill-opacity:1;fill-rule:nonzero;stroke:none" />
          </g>
        </g>
      </g>
    </g>
  </g>
</svg>
