<?xml version="1.0" encoding="utf-8"?>
<!-- Generator: Adobe Illustrator 16.0.0, SVG Export Plug-In . SVG Version: 6.00 Build 0)  -->
<!DOCTYPE svg PUBLIC "-//W3C//DTD SVG 1.1//EN" "http://www.w3.org/Graphics/SVG/1.1/DTD/svg11.dtd">
<svg version="1.1" id="Layer_1" xmlns="http://www.w3.org/2000/svg" xmlns:xlink="http://www.w3.org/1999/xlink" x="0px" y="0px"
	 width="644.448px" height="999.999px" viewBox="0 0 644.448 999.999" enable-background="new 0 0 644.448 999.999"
	 xml:space="preserve">
<g>
	<g>
		<path d="M110.311,795.388h13.94v35.215h-12.995c0-6.301-9.182-23.746-46.984-25.207c-38.595-1.473-42.484,17.471-29.421,21.514
			c16.812,5.186,50.057,4.072,70.685,10.738c27.162,8.789,34.85,38.014,11.074,53.578c-21.338,13.967-58.691,12.318-85.191,3.145
			c-4.839-1.67-12.609-5.934-12.225-0.365v3.318H3.141v-38.539h14.334c0.184,2.225-1.725,10.752,14.32,19.648
			c18.604,10.311,52.53,10.74,66.098,3.33c8.037-4.389,9.158-18.471-5.356-20.385c-15.569-2.059-40.278-3.582-58.742-7.77
			c-13.077-2.992-23.146-6.74-29.121-14.471c-4.591-5.939-12.226-29.293,14.136-41.148c32.679-14.715,77.934-4.451,85.961,2.215
			C108.021,802.923,111.642,802.054,110.311,795.388"/>
		<path d="M272.052,846.427c0.046-26.506-18.54-41.506-43.006-41.506s-43.035,15-43.01,41.506c0.017,26.5,19.189,42.15,43.01,41.496
			C252.861,887.255,272.018,872.743,272.052,846.427 M229.666,789.71c36.289,0,74.887,17.416,74.117,57.453
			c-0.761,40.041-38.967,55.604-74.117,55.604c-35.145,0-76.786-15.563-77.561-55.604
			C151.344,807.126,194.136,789.71,229.666,789.71"/>
		<path d="M623.244,813.046c-2.884,2.893-38.967,45.654-38.967,45.654v22.912c-0.058,2.482,0.136,2.383,2.86,2.383h14.909v13.102
			h-68.398v-13.102c0,0,13.762,0.191,16.624,0c2.867-0.184,3.103-0.855,3.156-2.383v-23.113c0,0-40.03-43.932-40.44-44.518
			c-1.357-1.938-5.058-5.301-11.61-5.459h-11.27v-13.244h69.149v13.244h-7.072c-1.514,0-3.628,3.18-0.753,6.045
			c2.854,2.857,23.488,27.502,23.488,27.502l23.486-27.693c1.39-1.814,0.956-5.854-1.906-5.854h-8.603v-13.244h56.55v13.244h-13.181
			C627.013,808.522,624.205,812.087,623.244,813.046"/>
		<path d="M359.137,877.825c0,6.684,3.47,6.316,6.528,6.221h13.623v13.059h-59.978v-12.584h13.264
			c5.382-0.379,6.161-3.174,6.348-6.223v-61.889c0.154-4.113,0.191-7.559-7.109-7.73h-12.703l-0.098-13.566h50.717l68.49,63.408
			v-42.779c0-7.275-3.603-7.275-6.647-7.643h-12.742v-12.986H476.9v13.172h-13.948c-3.262,0-4.682,3.252-4.865,6.309v82.512h-19.015
			l-79.936-70.291V877.825z"/>
		<path d="M28.133,961.497h20.251c8.168-0.186,12.979-2.209,12.979-9.51c0-6.822-4.76-9.621-11.892-9.621H28.133V961.497z
			 M1.668,996.864v-8.141h7.125c2.78,0,3.427-1.098,3.427-3.463l-0.018-39.084c0-2.383-0.7-3.625-3.478-3.625H2.021v-8.324h53.094
			c18.176,0,23.982,4.266,23.982,17.311s-8.147,18.338-28.549,18.338H28.133v15.41c0,2.375,0.65,3.463,3.428,3.463h7.3l-0.124,8.115
			H1.668z"/>
		<path d="M113.842,985.239c0,2.387,0.645,3.461,3.426,3.461h7.149v8.125h-37.04v-8.15H94.5c2.77,0,3.428-1.078,3.428-3.461v-39.135
			c0-2.383-0.658-3.936-3.428-3.936h-7.123v-8.137h37.04v8.111h-7.149c-2.781,0-3.426,1.543-3.426,3.918V985.239z"/>
		<path d="M206.133,977.526c-1.287,9.672-12.398,22.473-32.475,22.473c-19.006,0-42.645-8.051-43.045-33.82
			c-0.401-25.186,22.232-35.854,40.861-35.502c11.078,0.213,20.988,3.986,23.537,6.537c1.613,1.605,3.697,1.721,2.912-3.031h7.307
			v21.516h-6.807c-0.635-11.252-13.697-18.434-27.719-16.703c-14.801,1.813-22.107,13.086-22.09,27.033
			c0.008,15.459,12.74,26.006,25.628,25.988c8.494-0.008,21.839-2.521,24.565-14.525L206.133,977.526z"/>
		<path d="M216.346,958.026v-23.818h74.58v23.818h-7.501c0.175-16.814-1.446-15.203-7.243-15.84l-14.53-0.039v43.279
			c0,2.389,0.618,3.928,3.393,3.928h7.132v7.676h-37.067v-7.676h7.125c2.769,0,3.413-1.539,3.413-3.928v-43.279l-14.422,0.049
			c-6.432,0.627-7.271-0.494-7.271,15.838L216.346,958.026z"/>
		<path d="M341.07,999.653c-14.965,0-30.783-3.412-30.783-22.754v-30.77c0-2.383-0.658-3.922-3.427-3.922h-7.125v-8.168h37.031
			v8.121h-7.142c-2.777,0-3.434,1.551-3.434,3.943v31.732c0,2.1-0.86,14.582,14.879,14.582c17.588,0,19.233-7.643,19.233-14.656
			l0.034-31.633c0-2.383-0.627-3.922-3.397-3.922h-7.136v-8.168h31.436v8.121h-7.161c-1.75,0-3.363,1.797-3.278,6.537l0.141,28.805
			C370.941,996.056,356.325,999.653,341.07,999.653"/>
		<path d="M416.028,961.487h20.248c7.77,0,11.939-3.609,11.939-9.52c0-5.896-4.99-9.611-11.202-9.611h-20.985V961.487z
			 M450.24,966.567c6.246,1.51,10.672,2.807,11.014,10.424v9.047c0,1.814,0.315,4.441,3.301,4.441c3.201,0,2.984-3.633,2.816-7.098
			v-3.816h6.625v4.617c0,11.248-2.684,14.396-12.508,14.389c-8.298-0.01-16.264-2.576-16.264-15.098v-6.861
			c0-4.646-3.836-6.76-10.97-6.752l-18.227,0.01v15.408c0,2.373,0.657,3.461,3.426,3.461h7.134l0.032,8.352h-37.065v-8.385h7.132
			c2.773,0,3.421-1.086,3.421-3.471v-39.066c0-2.375-0.722-4.162-3.48-4.162h-6.713v-7.791h51.912
			c18.192,0,24.229,5.836,24.135,17.656C465.878,962.001,457.467,965.228,450.24,966.567"/>
		<path d="M508.738,988.901l33.354,0.139c6.432-0.623,7.586-3.672,7.586-15.824h7.162v23.84l-74.658,0.025v-8.137h7.132
			c2.768,0,3.423-1.088,3.423-3.453v-39.137c0-2.379-0.655-3.932-3.423-3.932h-7.132v-8.195h74.658v23.791h-7.162
			c0-12.137-1.154-15.463-7.586-16.1l-33.354-0.025v18.824l15.521-0.018c2.015,0,3.336-0.744,3.336-4.014v-6.498h6.922v29.432
			h-6.892v-6.52c0-3.26-1.326-4.029-3.334-4.029l-15.554-0.01V988.901z"/>
		<path d="M630.102,934.917h7.307v21.809h-6.807c0-3.816-4.917-15.738-24.754-16.291c-20.323-0.561-23.005,10.553-15.299,14.049
			c8.515,3.855,26.234,2.475,37.045,6.504c14.24,5.309,18.265,22.969,5.802,32.377c-11.18,8.443-30.764,7.459-44.66,1.904
			c-2.524-1.01-6.611-3.586-6.406-0.223v2.02h-8.409v-23.301h7.515c-0.016,1.338-0.901,6.49,7.508,11.863
			c12.452,7.971,24.554,8.805,34.652,2.443c4.651-2.934,6.622-11.313-2.808-12.75c-8.17-1.232-21.129-2.166-30.789-4.695
			c-6.867-1.795-12.141-4.084-15.285-8.744c-2.623-3.912-7.03-17.377,7.411-24.881c17.131-8.891,36.185-3.633,45.068,1.352
			C629.271,939.509,630.793,939.456,630.102,934.917"/>
	</g>
	<g>
		<path d="M197.609,656.668V539.965c0-16.531-14.371-57.886-14.371-101.988c0-42.539,15.676-94.937,15.676-113.07l0.01-122.621
			l-43.84,20.453c-0.019,98.788-0.019,187.705,0.06,191.508c0.325,15.672,12.759,15.849,12.558,31.064
			c-0.239,17.663-12.951,26.215-12.558,36.112c0.21,5.336,0.218,97.347,0.166,194.937L197.609,656.668z"/>
		<path d="M210.143,650.836l41.248-19.198c-0.01-29.09,0.008-49.668,0.051-53.496c0.667-56.216-15.293-94.51-15.425-164.164
			c-0.12-62.769,16.729-108.021,18.034-159.773c0.09-3.327,0.124-34.923,0.133-77.692l-43.422,20.251l-0.075,125.688
			c0.243,17.61,12.442,55.248,12.442,96.995c0,41.74-13.18,101.8-12.91,116.266L210.143,650.836z"/>
		<path d="M263.691,625.916l44.543-20.729c-3.871-42.791-18.244-127.974-18.244-216.646c0-103.973,20.502-203.485,20.502-228.729
			v-9.568l-43.84,20.453c0.008,43.583,0.025,75.892,0.067,79.204c0.676,49.321,11.973,90.706,11.965,144.16
			c-0.018,52.525-14.239,126.466-14.908,179.529C263.734,577.404,263.709,597.48,263.691,625.916"/>
		<polygon points="40.69,276.108 2.408,293.967 2.408,747.515 40.665,729.712 		"/>
		<polygon points="51.448,724.692 90.576,706.482 90.604,252.827 51.482,271.071 		"/>
		<path d="M143.766,228.02l-42.457,19.805l0.037,453.646l42.326-19.699c0.184-101.37,0.313-193.588,0.104-195.834
			c-1.298-14.398-11.541-9.594-11.783-24.578c-0.301-17.983,11.791-27.414,11.791-38.436
			C143.783,418.808,143.775,328.305,143.766,228.02"/>
		<path d="M362.876,579.76c-5.772-58.154-14.157-142.621-14.157-217.969c0-76.342,8.489-173.666,14.196-236.003l-40.232,18.762
			c0,3.941,0,6.701-0.009,8.019c-0.086,25.244,15.46,109.271,15.766,213.394c0.296,99.109-13.318,187.465-16.142,232.679
			L362.876,579.76z"/>
		<path d="M404.962,334.364c0.419-68.692,6.23-156.437,11.646-233.628l-35.137,16.386c4.414,56.934,13.54,137.665,13.572,222.183
			c0.037,75.756-5.09,166.163-8.821,229.589l31.123-14.487C411.245,484.822,404.545,401.831,404.962,334.364"/>
		<path d="M473.738,528.165c-6.164-78.195-12.185-165.613-12.04-219.774c0.176-65.755,6.261-156.409,11.595-234.099l-32.165,15.001
			c4.809,68.584,11.722,151.587,12.081,223.338c0.315,64.199-5.058,150.967-8.955,229.256L473.738,528.165z"/>
		<path d="M502.32,514.858l25.609-11.916c-5.034-69.341-11.138-150.736-11.119-219.684c0.016-79.92,5.658-148.49,10.511-234.173
			l-30.12,14.048c5.728,73.906,12.41,150.852,12.351,223.008C509.501,353.887,506.251,440.247,502.32,514.858"/>
		<path d="M582.234,54.969c0.484-10.73,0.634-21.316,0.644-31.799l-29.742,13.871c1.035,11.209,1.874,21.321,2.227,31.004
			c3.686,99.72,10.391,101.526,10.156,192.014c-0.233,90.825-3.394,147.346-7.757,228.998l21.714-10.102
			c-3.052-83.907-7.66-128.359-7.711-221.071C571.722,181.15,577.83,153.324,582.234,54.969"/>
		<path d="M619.194,234.975c0.202,30.051-5.468,137.712-10.68,230.468l23.195-10.795c-3.218-94.65-7.766-189.948-8.093-222.008
			c-0.309-31.06,3.914-119.942,8.748-214.421c0.071-5.952,0.124-12.007,0.166-18.219l-23.705,11.061
			C613.807,109.369,619.904,196.604,619.194,234.975"/>
	</g>
</g>
</svg>
