<svg xmlns="http://www.w3.org/2000/svg" width="31.092484" height="32.179073pt" viewBox="0 0 23.319363 32.179074"><path transform="scale(.75)" d="M16.521484 3.8378906c-.052384.0323748-.530654.6884942-1.064453 1.4589844-.533797.7704902-1.002695 1.4216285-1.041015 1.4453125-.038322.0236837-.416764-.0766288-.839844-.2226563-.361437-.1247512-.609168-.1910538-.757832-.1910538-.247499 0-.22042.183766.01369.5875382.236932.4086335.400176 1.076954.503907 2.0605469l.04492.4257813h-2.365232c-3.7320865-.000131-5.685914-.2562252-6.2441406-.8144532-.158048-.158048-.3462221-.2871094-.4179688-.2871094-.07174 0-.1822004.2091307-.2460937.4628907-.3387133 1.3451561-1.3511013 2.5683801-3.03125 3.6660161C.48393374 12.816594 0 13.191732 0 13.261719c0 .33521.81511797.243221 2.3222656-.261719 1.1593388-.388415 2.3403391-1.003185 2.9335938-1.525391.7083533-.623516 1.0835541-.691272 4.1699218-.748047 1.3321518-.02133 2.6600518-.04435 3.9843748.0918-.01809.244314-.04035.488282-.06055.732422l-.548828.02539c-1.655714.07545-3.3405079.440924-4.3242185.9375-.7640783.385705-1.5224558 1.092759-1.8613251 1.736326-.2369134.449932-.2630412.609651-.2636719 1.550781-.0008347 1.248732.1764683 1.925756.7226563 2.738281.7877758 1.171922 1.9767411 1.740391 3.8750002 1.851563l1.101562.06445-1.40039 1.400391c-2.4802887 2.482601-4.1488951 3.662739-6.0000004 4.242187-.5274866.165119-1.127147.241334-2.4335937.310547-.953544.05051-1.77506924.118804-1.8261719.150391-.1510632.09336.002646.242187.25.242187.21659679 0 1.3498882.431108 3.2597656 1.238281.5491916.232105.9309993.344546 1.2822966.344546.2972421 0 .5726408-.0805.9091097-.237124 1.3407146-.624098 2.4417564-1.602642 4.6601561-4.144531.807411-.927291 1.620709-1.848853 2.457031-2.75l-.06055 7c-.06484 7.484817-.0999 8.065387-.601563 9.939453-.138304.516659-.408544 1.304159-.601563 1.75-.354294.81837-.983433 1.859375-1.123046 1.859375-.04163 0-.08021-.177635-.08594-.396484-.01392-.530892-.234286-.839369-.8632811-1.207031-.3452396-.201807-.5296089-.27183-.7754591-.27183-.055834 0-.1148387.0036-.179619.01011-.5207094.05224-1.0884696.469318-1.3476563.990234-.086067.172969-.127146.273843-.127146.377245 0 .0906.03154.183147.09199.327833.1717374.411024.6747604.816644 1.3339844 1.074219.3437215.134303.7118254.20084 1.079578.20084.4587781 0 .9170091-.103551 1.3266721-.308262 1.44586-.722505 2.837733-2.870871 3.484375-5.380859.187033-.773823.498709-1.484518.83789-2.197266l.675782.283203c.752562.315841 1.529746.474827 2.2877.474827.606874 0 1.201419-.101922 1.761128-.306858.768986-.281562 1.504637-.738705 1.451172-.900391-.02517-.07611-.400001-.1414-1.03125-.18164-2.193795-.139864-3.593708-.822694-4.28125-2.085938-.36695-.674218-.453965-1.621789-.457032-4.951172-.0034-3.640168.09621-6.050781.25-6.050781.215035 0 2.552651 2.59914 4.423828 4.916016.82938 1.026935 1.421808 1.529687 2.34375 1.994141 1.184208.596577 2.128676.826651 3.427735.833984 1.148489.0065 2.050781-.167368 2.050781-.396484 0-.07848-.202525-.154626-.525391-.197266-1.51631-.200239-3.925014-1.628529-6.816406-4.041016-1.330572-1.110186-3.479513-3.117352-3.761719-3.513672l-.207031-.289062.787109.06055c1.963814.151438 3.700594-.588825 4.472657-1.90625.764765-1.304975.911315-3.151787.34375-4.324219-.683932-1.412824-2.668619-2.355715-5.292963-2.515624l-1.150391-.07031c-.01841-.31652-.04015-.632825-.06055-.949218h1.511719c2.675176 0 5.884497.3111 6.455078.626953.12118.06707.51489.371608.875.675781.36011.304172 1.051919.789705 1.53711 1.080078 1.029298.616004 3.756511 1.976173 4.15625 2.072266.51897.124756.283633-.142333-.703125-.792969-1.072503-.707176-2.107992-1.728225-2.738282-2.701172-.217948-.336437-.66219-1.162187-.986328-1.835937-.626057-1.3013294-.77468-1.4362289-1.146481-1.0253939-.478569.5288153-2.93539.7655425-6.236328.6015625-.877771-.0505838-1.756259-.0806235-2.634766-.1015625l.0625-2.3261719c.03477-1.2787498.08837-2.56641.119141-2.8613281.03428-.3283938.01927-.5126118-.03906-.4765625zM13.300781 12.78125v6.224609l-.27539.107422c-.379706.146187-1.993045.202431-2.453125.08594-1.393443-.352836-2.0492264-1.447532-1.9433598-3.242188.091459-1.550398.567761-2.408384 1.5917968-2.863281.443005-.196788.737658-.240731 1.804688-.273438zm3.023438.269531 1.3125.05664c1.403508.0603 1.642433.121102 2.148437.546875.841879.708393 1.238187 2.547166.861328 4.001953-.208581.805187-.521848 1.245573-1.111328 1.566406-.926425.504226-2.947871.41661-3.246094-.140625-.160389-2.191494-.07538-3.93101.03516-6.03125z" style="fill:#000;stroke-width:.1"/><path d="M10.595948 3.6573663c-.330853-.3597419-.470381-.6850613-.470667-1.0973974-.000525-.7195925.359004-1.0914816 1.127982-1.1668402.496524-.048659.819243-.2569178 1.393893-.89951675C12.941049.16496752 13.128827 0 13.214579 0c.09752 0 .06309.21335059-.09727.64194995-.186138.49749795-.531172.91627445-.872393 1.05884555-.781514.6959477-.985125 1.2513849-1.472876 2.1253209-.01149 0-.09074-.075938-.176095-.1687501z" style="fill:#000;stroke-width:.075"/><path d="M3.8654291 24.001592c0-.27561-.2235262-.499136-.4991362-.499136-.27561 0-.4991362.223526-.4991362.499136s.2235262.499136.4991362.499136c.27561 0 .4991362-.223526.4991362-.499136m.7797097.766539c0-.27561-.2235262-.499136-.4991362-.499136-.27561 0-.4991362.223526-.4991362.499136s.2235262.499136.4991362.499136c.27561 0 .4991362-.223526.4991362-.499136m-1.5960026-.054515c0-.27561-.2235262-.499136-.4991362-.499136-.27561 0-.4991362.223526-.4991362.499136s.2235262.499136.4991362.499136c.27561 0 .4991362-.223526.4991362-.499136m.7993556.791012c0-.27561-.2235262-.499136-.4991362-.499136-.27561 0-.4991362.223526-.4991362.499136s.2235262.499136.4991362.499136c.27561 0 .4991362-.223526.4991362-.499136" style="opacity:1;fill:#000;fill-opacity:1;fill-rule:nonzero;stroke:none;stroke-width:.55555999" transform="translate(3)"/><path d="M3.8654291 24.001592c0-.27561-.2235262-.499136-.4991362-.499136-.27561 0-.4991362.223526-.4991362.499136s.2235262.499136.4991362.499136c.27561 0 .4991362-.223526.4991362-.499136m.7797097.766539c0-.27561-.2235262-.499136-.4991362-.499136-.27561 0-.4991362.223526-.4991362.499136s.2235262.499136.4991362.499136c.27561 0 .4991362-.223526.4991362-.499136m-1.5960026-.054515c0-.27561-.2235262-.499136-.4991362-.499136-.27561 0-.4991362.223526-.4991362.499136s.2235262.499136.4991362.499136c.27561 0 .4991362-.223526.4991362-.499136m.7993556.791012c0-.27561-.2235262-.499136-.4991362-.499136-.27561 0-.4991362.223526-.4991362.499136s.2235262.499136.4991362.499136c.27561 0 .4991362-.223526.4991362-.499136" style="opacity:1;fill:#000;fill-opacity:1;fill-rule:nonzero;stroke:none;stroke-width:.55555999" transform="translate(12.000768 -19.424484)"/></svg>