<?xml version="1.0" encoding="UTF-8" standalone="no"?>
<!-- Created with Inkscape (http://www.inkscape.org/) -->

<svg
   xmlns:dc="http://purl.org/dc/elements/1.1/"
   xmlns:cc="http://creativecommons.org/ns#"
   xmlns:rdf="http://www.w3.org/1999/02/22-rdf-syntax-ns#"
   xmlns:svg="http://www.w3.org/2000/svg"
   xmlns="http://www.w3.org/2000/svg"
   xmlns:sodipodi="http://sodipodi.sourceforge.net/DTD/sodipodi-0.dtd"
   xmlns:inkscape="http://www.inkscape.org/namespaces/inkscape"
   id="svg2985"
   version="1.1"
   inkscape:version="0.48.5 r10040"
   width="585.35559"
   height="343.53244"
   sodipodi:docname="Hanna-Barbera.png">
  <metadata
     id="metadata2991">
    <rdf:RDF>
      <cc:Work
         rdf:about="">
        <dc:format>image/svg+xml</dc:format>
        <dc:type
           rdf:resource="http://purl.org/dc/dcmitype/StillImage" />
        <dc:title></dc:title>
      </cc:Work>
    </rdf:RDF>
  </metadata>
  <defs
     id="defs2989" />
  <sodipodi:namedview
     pagecolor="#ffffff"
     bordercolor="#666666"
     borderopacity="1"
     objecttolerance="10"
     gridtolerance="10"
     guidetolerance="10"
     inkscape:pageopacity="0"
     inkscape:pageshadow="2"
     inkscape:window-width="1366"
     inkscape:window-height="706"
     id="namedview2987"
     showgrid="false"
     fit-margin-top="0"
     fit-margin-left="0"
     fit-margin-right="0"
     fit-margin-bottom="0"
     inkscape:zoom="1.487106"
     inkscape:cx="295.03623"
     inkscape:cy="168.93012"
     inkscape:window-x="-8"
     inkscape:window-y="-8"
     inkscape:window-maximized="1"
     inkscape:current-layer="svg2985" />
  <path
     style="fill:#a75ebf;fill-opacity:1"
     d="m 31.78495,298.8896 c -0.94623,-9.39868 -2.19696,-20.78649 -3.78944,-34.50262 -2.02105,-17.40738 -2.91342,-25.51209 -3.62796,-32.94991 -0.39083,-4.0683 -0.87033,-8.15342 -1.06554,-9.07803 -0.19522,-0.92462 -0.82,-5.91753 -1.38841,-11.09538 -1.67539,-15.26195 -2.84759,-25.64006 -3.98748,-35.30346 -0.58896,-4.99292 -1.51103,-13.01185 -2.04903,-17.81985 -0.538,-4.808 -1.41126,-12.52433 -1.94058,-17.1474 -0.52932,-4.62307 -1.28217,-11.7342 -1.673,-15.8025 -0.39084,-4.06831 -0.8765,-8.15342 -1.07925,-9.07804 C 10.9815,115.1878 10.38321,110.49748 9.85472,105.68948 9.32623,100.88149 8.4178,92.711266 7.83598,87.533426 7.25416,82.355575 6.34024,74.185345 5.80504,69.377351 5.26985,64.569355 4.36352,56.550424 3.79098,51.557505 1.27854,29.64753 0.66652998,24.075173 0.34353,20.168048 L 0,16.012695 6.27541,15.70662 c 3.45148,-0.168341 13.38654,-0.642575 22.07792,-1.053854 8.69138,-0.411278 18.22331,-1.040459 21.18208,-1.398182 2.95877,-0.357722 12.64201,-0.986514 21.51831,-1.397316 8.8763,-0.410802 23.55245,-1.159792 32.61368,-1.664422 9.06122,-0.50463 23.43478,-1.231027 31.94123,-1.614215 8.50646,-0.383188 17.88709,-0.998966 20.84586,-1.368394 5.04931,-0.630451 13.8358,-1.101832 50.76975,-2.723713 8.32153,-0.365423 17.55083,-0.961162 20.50963,-1.323864 2.9588,-0.362701 12.4907,-0.979797 21.1821,-1.371325 8.6914,-0.391527 21.823,-1.01075906 29.1814,-1.37607006 7.3584,-0.365312 13.5241,-0.518936 13.7017,-0.341388 0.3472,0.347216 -0.6531,25.82159006 -2.1669,55.18208706 -0.5149,9.985838 -1.2676,25.721101 -1.6728,34.967242 -0.4051,9.24615 -1.039,19.685884 -1.4086,23.199414 -0.3696,3.51354 -0.9694,13.49938 -1.3329,22.19075 -0.3635,8.69138 -0.969,23.21624 -1.3457,32.27746 -0.3766,9.06123 -0.9855,18.89576 -1.3531,21.85453 -0.3676,2.95877 -0.9656,12.7933 -1.3289,21.85453 -1.6052,40.03135 -2.0493,49.09584 -2.669,54.46821 -0.3626,3.14369 -0.8594,12.27817 -1.1039,20.29886 l -0.4446,14.58306 -6.7996,0.36655 c -3.7397,0.2016 -21.4757,0.65672 -39.4132,1.01137 -17.93751,0.35465 -38.36309,0.96111 -45.39016,1.3477 -7.02707,0.38658 -26.84745,0.8713 -44.04528,1.07716 -17.19783,0.20585 -34.9,0.64928 -39.33815,0.9854 -4.43815,0.33612 -21.86156,0.79505 -38.71869,1.01986 l -30.64933,0.40873 -0.83331,-8.27719 z m 58.09728,-20.15189 c 29.84743,-1.15559 51.76408,-1.60651 52.00257,-1.0699 0.12329,0.27738 0.50154,0.50433 0.84056,0.50433 0.91589,0 0.74617,-1.86769 -0.2261,-2.48826 -0.46338,-0.29576 -1.68008,-1.7735 -2.70377,-3.28386 -1.0237,-1.51037 -2.38453,-3.33105 -3.02406,-4.04596 -0.63954,-0.71491 -1.9193,-2.38562 -2.84392,-3.7127 -1.69487,-2.4326 -3.35965,-4.62982 -7.06069,-9.31891 -1.10954,-1.40574 -2.77384,-3.54044 -3.69846,-4.74376 -0.92461,-1.20333 -2.16609,-2.70491 -2.75882,-3.33686 -0.91361,-0.97404 -1.14729,-4.10782 -1.53471,-20.58092 -0.25134,-10.68756 -0.74827,-23.06314 -1.10428,-27.50129 -0.356,-4.43815 -0.72449,-12.78923 -0.81886,-18.55796 l -0.17158,-10.48859 6.38825,0.24385 c 3.51354,0.13412 8.80906,0.55269 11.76782,0.93016 2.95877,0.37746 13.39851,1.14159 23.19943,1.69803 24.29576,1.3794 31.43463,1.90201 31.8618,2.33248 0.1998,0.20134 0.39932,17.19839 0.44338,37.77122 0.0779,36.35777 0.0431,37.4422 -1.24282,38.7281 -0.72762,0.72762 -1.7751,1.58403 -2.32775,1.90315 -1.19778,0.69164 -6.35068,4.83215 -7.95025,6.38825 -0.62241,0.60549 -1.58381,1.362 -2.13645,1.68111 -1.16172,0.67083 -6.03006,4.58979 -8.44773,6.80035 -0.91011,0.83215 -1.85573,1.51301 -2.10135,1.51301 -1.04149,0 -4.75023,4.29003 -4.19164,4.84862 0.668,0.668 91.04387,-0.59855 96.80037,-1.35658 l 3.5391,-0.46603 -11.4403,-11.64789 -11.4403,-11.64789 0,-91.57272 0,-91.572727 2.349,-1.599686 c 1.2917,-0.879827 2.3487,-1.86328 2.3487,-2.185452 0,-0.322172 0.3274,-0.585768 0.7274,-0.585768 0.6443,0 5.487,-3.609843 7.8935,-5.883911 0.4892,-0.462307 1.1488,-0.840559 1.4658,-0.840559 0.3171,0 0.9763,-0.378251 1.465,-0.840559 0.4887,-0.462307 3.0825,-2.593558 5.7638,-4.736112 2.6814,-2.142555 4.8753,-4.08182 4.8753,-4.309479 0,-0.631218 -105.82954,0.464228 -106.47058,1.102081 -0.30809,0.306559 -0.15679,0.900989 0.33622,1.320955 3.00352,2.55851 4.46477,3.668902 6.10785,4.641321 1.01708,0.601932 1.84923,1.295068 1.84923,1.540302 0,0.245235 0.9078,0.821906 2.01734,1.281491 1.10954,0.459586 2.01734,1.110997 2.01734,1.44758 0,0.336584 0.52955,0.804827 1.17679,1.040541 1.09397,0.398415 4.46865,2.954043 6.94899,5.262442 0.58579,0.545187 1.41795,0.991248 1.84923,0.991248 0.43128,0 0.78415,0.231167 0.78415,0.513704 0,0.282538 1.22217,1.265991 2.71593,2.185452 1.49377,0.919463 2.83771,2.276952 2.98653,3.016644 0.14882,0.739692 0.45061,13.448938 0.67065,28.242778 0.22005,14.793824 0.57352,28.032624 0.78551,29.419544 l 0.38543,2.52168 -37.62918,0 -37.62918,0 -0.43416,-6.55636 c -0.2388,-3.606 -0.43743,-10.64147 -0.4414,-15.63439 -0.004,-4.99292 -0.28011,-10.137134 -0.61363,-11.431594 -0.33351,-1.29446 -0.80192,-10.52406 -1.0409,-20.510231 L 112.3378,57.944552 124.64596,45.61079 136.9541,33.277028 110.72867,33.717582 c -14.42399,0.242305 -28.94884,0.718955 -32.27746,1.059222 -3.32861,0.340267 -11.68356,0.623911 -18.56655,0.63032 -12.56598,0.0117 -18.75426,0.455524 -18.75426,1.345057 0,0.710025 6.44965,8.060707 16.20854,18.472913 2.44239,2.605899 5.83931,6.274543 7.54872,8.152541 l 3.10802,3.414541 0.25479,24.82824 c 0.67632,65.903084 1.86791,143.569434 2.34527,152.860654 l 0.53197,10.3542 -3.06272,3.13119 c -6.39231,6.53522 -19.21081,20.35208 -19.42559,20.93854 -0.29294,0.79986 18.20099,0.72484 41.24341,-0.16729 l 0,0 z"
     id="path2999"
     inkscape:connector-curvature="0" />
  <path
     style="fill:#000000;fill-opacity:1"
     d="m 297.29862,343.23139 c -0.0585,-0.64723 -0.40891,-1.17678 -0.77876,-1.17678 -0.36985,0 -0.68271,-0.37825 -0.69526,-0.84056 -0.0125,-0.46231 -0.60749,-2.05096 -1.32208,-3.53035 -0.71459,-1.47938 -1.30953,-3.06804 -1.32208,-3.53034 -0.0125,-0.46231 -0.30137,-0.84056 -0.64183,-0.84056 -0.34046,0 -0.81841,-0.90781 -1.0621,-2.01734 -0.2437,-1.10954 -0.72164,-2.01734 -1.0621,-2.01734 -0.34046,0 -0.61902,-0.31921 -0.61902,-0.70934 0,-0.69052 -2.16997,-5.98642 -3.30032,-8.05455 -0.30984,-0.56691 -0.77717,-2.00426 -1.03851,-3.19412 -0.26134,-1.18986 -0.70582,-2.16338 -0.98774,-2.16338 -0.28191,0 -0.89712,-1.28352 -1.36713,-2.85227 -0.47001,-1.56874 -1.27441,-3.45168 -1.78756,-4.1843 -0.51315,-0.73262 -0.933,-1.86991 -0.933,-2.52732 0,-0.65739 -0.27856,-1.19526 -0.61902,-1.19526 -0.34045,0 -0.8184,-0.90781 -1.0621,-2.01734 -0.24369,-1.10954 -0.74294,-2.01735 -1.10943,-2.01735 -0.78636,0 -0.46819,-11.80106 1.07871,-40.01059 2.52956,-46.12943 5.39153,-105.14629 6.45671,-133.14451 0.36584,-9.61599 0.94732,-18.84533 1.29219,-20.50964 0.34486,-1.6643 0.80402,-10.137124 1.02034,-18.828504 0.21633,-8.691381 0.68704,-17.618114 1.04604,-19.837189 0.35899,-2.219075 0.96165,-11.751012 1.33925,-21.182081 0.37759,-9.431069 0.94941,-21.837717 1.2707,-27.570327 0.32129,-5.732611 0.64943,-12.389837 0.7292,-14.793834 0.0798,-2.403998 0.28341,-3.84135406 0.45255,-3.194124 0.16914,0.647231 0.58793,1.176783 0.93066,1.176783 0.34273,0 0.63341,0.680852 0.64596,1.513005 0.0126,0.832154 0.60748,2.72341 1.32208,4.202794 0.71459,1.479383 1.31915,3.14369 1.34346,3.698458 0.0243,0.554769 0.48848,1.596059 1.03149,2.313978 0.543,0.717919 0.98728,2.003973 0.98728,2.8579 0,0.853925 0.26893,1.552593 0.59761,1.552593 0.32869,0 0.7963,1.059104 1.03914,2.353564 0.24284,1.294461 0.73042,2.353565 1.08351,2.353565 0.35309,0 0.64198,0.621804 0.64198,1.381787 0,0.759983 0.57188,2.65124 1.27084,4.202794 0.69896,1.551553 1.83372,4.485313 2.52168,6.519465 0.68795,2.034152 1.47826,3.799486 1.75624,3.922964 0.27797,0.123479 0.6949,1.409534 0.9265,2.8579 0.2316,1.448367 0.65134,2.633394 0.93276,2.633394 0.28142,0 0.71036,1.059104 0.9532,2.353565 0.24284,1.29446 0.73042,2.353564 1.08351,2.353564 0.35308,0 0.64197,0.566736 0.64197,1.259414 0,0.692678 0.63154,2.6871 1.40341,4.432049 1.35823,3.070514 1.38033,3.619796 0.6864,17.064769 -0.39436,7.640669 -1.03616,20.54935 -1.42623,28.685954 -0.39007,8.13661 -0.99899,16.30684 -1.35315,18.15607 -0.35416,1.84923 -0.96134,10.01946 -1.34928,18.15607 -0.67264,14.10818 -1.35946,25.89436 -3.66386,62.8738 -1.29345,20.75655 -2.71463,43.9596 -4.01574,65.56358 -0.55685,9.24615 -1.1816,18.62679 -1.38834,20.84586 -0.20674,2.21908 -0.68846,9.6328 -1.0705,16.47495 -1.45657,26.08643 -2.40783,41.31229 -2.51023,40.17871 z"
     id="path3007"
     inkscape:connector-curvature="0" />
  <path
     style="fill:#cf4707;fill-opacity:1"
     d="m 296.20345,336.41492 c 0,-3.91462 0.30876,-8.4079 0.68614,-9.98505 0.37737,-1.57715 0.98292,-9.37347 1.34566,-17.32516 0.36273,-7.95168 1.11987,-21.87134 1.68252,-30.93256 0.56264,-9.06122 1.42223,-23.73738 1.91019,-32.61368 0.48796,-8.8763 0.98357,-16.13873 1.10134,-16.13873 0.11778,0 0.61612,-7.11113 1.10743,-15.8025 1.23744,-21.89059 2.84746,-47.89357 3.28923,-53.12332 0.20308,-2.404 0.66647,-9.96902 1.02978,-16.81117 0.3633,-6.84215 1.11369,-19.7027 1.66754,-28.579 0.55385,-8.8763 1.37782,-23.150614 1.83106,-31.720704 0.45323,-8.570091 1.05101,-15.807299 1.3284,-16.082692 0.27738,-0.275394 0.50433,-2.138496 0.50433,-4.140227 l 0,-3.63951 4.87524,0.366928 c 2.68138,0.201811 13.04547,0.836298 23.03131,1.409971 9.98584,0.573673 26.0237,1.495971 35.63972,2.049551 9.616,0.55358 25.5025,1.454297 35.3034,2.001594 9.801,0.547296 25.8388,1.4551 35.6397,2.017341 9.801,0.562241 25.8388,1.471518 35.6397,2.020616 9.8009,0.549098 25.8388,1.467321 35.6397,2.040495 9.8009,0.573175 21.3377,1.195811 25.6372,1.383641 l 7.81728,0.34151 0.4853,6.854351 c 0.2669,3.769901 0.6829,7.156961 0.9245,7.526811 0.2416,0.36984 0.8086,4.00106 1.2601,8.06937 1.3805,12.438354 2.6917,22.863184 2.8758,22.863184 0.096,0 0.5809,3.47992 1.0773,7.73314 1.8437,15.79638 2.7874,23.19943 2.9573,23.19943 0.096,0 0.5809,3.47991 1.0774,7.73314 1.8436,15.79637 2.7873,23.19942 2.9573,23.19942 0.1829,0 1.4444,10.49376 2.7081,22.52697 0.4079,3.88339 0.9311,7.5146 1.1627,8.06937 0.2316,0.55477 0.8033,4.33728 1.2704,8.40559 0.4671,4.0683 1.3265,11.02813 1.9097,15.46628 0.5833,4.43815 1.4656,11.39797 1.9608,15.46628 0.4951,4.0683 0.9789,7.39692 1.075,7.39692 0.096,0 0.5809,3.47991 1.0774,7.73314 1.8436,15.79637 2.7873,23.19942 2.9573,23.19942 0.1641,0 0.7788,4.97438 2.8401,22.98026 0.4731,4.13268 1.0871,7.73868 1.3645,8.01332 0.2774,0.27465 0.5043,2.22462 0.5043,4.33328 l 0,3.83394 -14.9619,0.48825 c -8.2291,0.26855 -19.95488,0.77331 -26.05728,1.1217 -6.1025,0.34839 -18.963,1.08416 -28.579,1.63504 -9.616,0.55088 -25.2756,1.44773 -34.7992,1.99299 -9.5235,0.54527 -25.1075,1.44264 -34.631,1.99417 -9.5235,0.55154 -25.3344,1.46066 -35.1353,2.02029 -9.801,0.55962 -25.5362,1.4619 -34.9673,2.00505 -9.43107,0.54315 -23.35072,1.28515 -30.93256,1.6489 -7.58184,0.36375 -16.50857,0.96981 -19.83719,1.34679 -3.32861,0.37699 -11.27189,0.87396 -17.65173,1.1044 l -11.59971,0.41897 0,-7.11751 z m 149.55319,-27.87539 c 0.1921,-0.31085 6.1486,-0.75917 13.2366,-0.99625 7.0881,-0.23708 13.2277,-0.69817 13.6437,-1.02464 0.416,-0.32648 2.997,-0.77229 5.7356,-0.9907 2.7387,-0.21841 5.2956,-0.71339 5.6822,-1.09996 0.3866,-0.38656 1.3479,-0.70284 2.1362,-0.70284 1.5912,0 10.5445,-2.66607 11.0742,-3.2976 0.1849,-0.22047 1.8492,-1.15737 3.6984,-2.08198 1.8493,-0.92461 3.4631,-1.90807 3.5864,-2.18545 0.1233,-0.27739 0.5518,-0.50434 0.9523,-0.50434 0.7417,0 1.1591,-0.32578 5.0954,-3.97692 1.2305,-1.1413 2.4904,-2.0751 2.7998,-2.0751 0.7782,0 4.7135,-5.44415 4.7135,-6.52072 0,-0.48191 0.2969,-0.8762 0.6597,-0.8762 0.3628,0 0.8584,-0.83215 1.1014,-1.84923 0.2429,-1.01707 0.6676,-2.15183 0.9438,-2.52167 0.2761,-0.36985 0.7232,-1.73155 0.9936,-3.02602 0.2703,-1.29446 0.7591,-2.68713 1.0862,-3.09483 0.3271,-0.40769 0.7892,-2.60155 1.0269,-4.87524 0.2376,-2.27368 0.6915,-4.13397 1.0087,-4.13397 0.7893,0 0.734,-21.24746 -0.059,-22.70421 -0.3496,-0.64222 -0.8173,-2.30241 -1.0391,-3.68934 -0.2219,-1.38692 -0.6445,-2.52167 -0.939,-2.52167 -0.2946,0 -0.8839,-1.13476 -1.3098,-2.52168 -0.9405,-3.06338 -2.4093,-4.97305 -8.5167,-11.07359 -6.9743,-6.9665 -8.8041,-8.59548 -9.6548,-8.59548 -0.4225,0 -0.7681,-0.25417 -0.7681,-0.56482 0,-0.31065 -1.1946,-0.95908 -2.6547,-1.44095 -1.4601,-0.48187 -2.8123,-1.2868 -3.0049,-1.78875 -0.1926,-0.50194 -0.8136,-0.91261 -1.38,-0.91261 -0.5664,0 -1.0298,-0.2698 -1.0298,-0.59955 0,-0.32976 -0.7565,-0.78942 -1.6811,-1.02148 -0.9246,-0.23207 -1.6811,-0.69473 -1.6811,-1.02815 0,-0.33341 -0.9078,-0.80559 -2.0174,-1.04928 -1.1095,-0.2437 -2.0173,-0.6976 -2.0173,-1.00867 0,-0.31108 -0.9078,-0.76498 -2.0173,-1.00867 -1.1096,-0.2437 -2.0174,-0.6976 -2.0174,-1.00867 0,-0.31108 -0.9078,-0.76498 -2.0173,-1.00867 -1.1096,-0.2437 -2.0174,-0.6976 -2.0174,-1.00867 0,-0.31108 -0.9078,-0.76498 -2.0173,-1.00868 -1.1095,-0.24369 -2.0173,-0.70792 -2.0173,-1.03162 0,-0.32371 -1.0591,-0.78724 -2.3536,-1.03008 -1.2945,-0.24285 -2.3536,-0.68642 -2.3536,-0.98572 0,-0.2993 -0.9834,-0.75446 -2.1854,-1.01148 -1.202,-0.25701 -2.4881,-0.70002 -2.8579,-0.98445 -0.3699,-0.28443 -1.6559,-0.72743 -2.8579,-0.98445 -1.202,-0.25701 -2.1855,-0.70209 -2.1855,-0.98904 0,-0.28696 -0.9597,-0.797 -2.1327,-1.13341 -2.2736,-0.65204 -3.415,-2.27267 -1.6007,-2.27267 0.5972,0 1.26,-0.45391 1.4729,-1.00867 0.2129,-0.55477 0.6934,-1.00868 1.0677,-1.00868 0.8811,0 8.8562,-4.80441 9.1501,-5.51222 0.1233,-0.29689 0.6065,-0.5398 1.0739,-0.5398 0.4674,0 1.5476,-0.6052 2.4004,-1.34489 0.8529,-0.73969 1.9583,-1.3449 2.4565,-1.3449 0.4982,0 0.9058,-0.28221 0.9058,-0.62713 0,-0.34492 0.5295,-0.80173 1.1767,-1.01512 0.6473,-0.2134 2.2013,-1.2929 3.4534,-2.39888 1.2521,-1.10599 2.4625,-2.01466 2.6898,-2.01927 0.722,-0.0147 5.6942,-4.91319 8.4826,-8.35704 1.4793,-1.82713 3.3609,-4.05472 4.1812,-4.95021 0.8204,-0.89548 1.6933,-2.27526 1.9399,-3.06618 0.2466,-0.79092 0.6345,-1.58934 0.8621,-1.77426 1.2584,-1.02276 3.4397,-6.21926 3.4397,-8.19454 0,-1.2626 0.3288,-2.62441 0.7306,-3.02625 1.4014,-1.40136 -0.3406,-15.50334 -2.4037,-19.45927 -0.5546,-1.06349 -1.0103,-2.16057 -1.0126,-2.43795 0,-0.27739 -0.5336,-1.0559 -1.1809,-1.73004 -0.6472,-0.67413 -2.2694,-2.41409 -3.6048,-3.86657 -4.8245,-5.24745 -10.468,-9.10403 -14.6741,-10.02784 -1.1344,-0.24917 -2.0626,-0.70499 -2.0626,-1.01294 0,-0.30795 -1.2104,-0.76441 -2.6898,-1.01435 -1.4794,-0.24994 -2.6898,-0.70204 -2.6898,-1.004664 0,-0.30264 -1.5886,-0.76382 -3.5303,-1.02486 -1.9417,-0.26104 -3.8518,-0.73324 -4.2447,-1.04933 -0.3928,-0.31608 -3.6458,-0.78077 -7.2288,-1.03263 -3.583,-0.25185 -6.5145,-0.68539 -6.5145,-0.9634 0,-0.27802 -3.8581,-0.70022 -8.5737,-0.93823 -4.7155,-0.23801 -9.0373,-0.68377 -9.6039,-0.99057 -0.5667,-0.30681 -7.3752,-0.9424 -15.1301,-1.41243 -7.7549,-0.47004 -14.4024,-1.08227 -14.7722,-1.36053 -0.3699,-0.27826 -4.9089,-0.72384 -10.0867,-0.99017 -5.1779,-0.26633 -9.7169,-0.72023 -10.0868,-1.00867 -0.3698,-0.28844 -4.9088,-0.74234 -10.08666,-1.00867 -5.17784,-0.26633 -9.71686,-0.72023 -10.08671,-1.00867 -0.36984,-0.28844 -4.90886,-0.74234 -10.0867,-1.00867 -5.17784,-0.26633 -9.71686,-0.71719 -10.08671,-1.00191 -0.36984,-0.28472 -3.82196,-0.62794 -7.67137,-0.76272 -7.19571,-0.25194 -8.76539,0.28754 -6.44913,2.21649 0.59485,0.49538 1.91218,1.6572 2.9274,2.58181 1.01522,0.92462 3.04118,2.58133 4.50213,3.68159 1.46096,1.10026 4.01271,3.29413 5.67055,4.87525 1.65785,1.58112 3.2287,2.874764 3.4908,2.874764 0.26209,0 1.93169,1.37975 3.71021,3.06612 1.77852,1.68637 4.59538,4.35456 6.25968,5.92933 1.66431,1.57477 3.85817,3.40713 4.87524,4.07191 l 1.84923,1.2087 0,80.8051 0,80.8051 -1.84923,0.84638 c -3.40944,1.56046 -4.87524,2.45347 -4.87524,2.97017 0,0.28214 -0.4634,0.51299 -1.02977,0.51299 -0.56638,0 -1.19686,0.43541 -1.40107,0.96758 -0.20422,0.53216 -1.25382,1.16141 -2.33246,1.39832 -1.07864,0.23691 -1.96117,0.70931 -1.96117,1.04977 0,0.34045 -0.43229,0.61901 -0.96064,0.61901 -0.52835,0 -1.3605,0.39103 -1.84923,0.86896 -0.48872,0.47792 -1.87204,1.27114 -3.07404,1.76269 -1.202,0.49156 -2.18545,1.15964 -2.18545,1.48461 0,0.32498 -0.43229,0.59087 -0.96064,0.59087 -0.52835,0 -1.36051,0.38178 -1.84923,0.8484 -0.48873,0.46662 -1.64509,1.22093 -2.56971,1.67624 -1.83462,0.90343 -4.17522,2.32303 -4.70713,2.85494 -0.18492,0.18492 -1.84923,1.09272 -3.69846,2.01734 -1.84923,0.92461 -3.4631,1.90806 -3.58638,2.18545 -0.12328,0.27738 -0.6378,0.50433 -1.14337,0.50433 -0.50557,0 -1.16121,0.37826 -1.45697,0.84056 -0.29576,0.46231 -2.31093,1.74837 -4.47815,2.8579 -2.16722,1.10954 -3.98282,2.31994 -4.03468,2.68979 -0.0612,0.43649 13.70904,0.86006 39.24387,1.20712 21.63598,0.29407 39.94339,0.80314 40.68309,1.13127 1.7158,0.76117 54.6069,0.87875 55.0743,0.12244 z"
     id="path3011"
     inkscape:connector-curvature="0" />
  <path
     style="fill:#cf4707;fill-opacity:1"
     d="m 414.96424,147.80953 0,-23.10824 5.5477,0.24876 c 3.0512,0.13682 5.699,0.47638 5.8839,0.75457 0.1849,0.2782 2.0762,0.71982 4.2028,0.98139 2.1266,0.26158 3.8665,0.72274 3.8665,1.02481 0,0.30207 1.0592,0.74791 2.3536,0.99076 1.2945,0.24284 2.3536,0.71002 2.3536,1.03819 0,0.32816 0.6533,0.80401 1.4517,1.05743 1.8628,0.59123 5.858,4.89312 6.3696,6.85866 0.2166,0.83216 0.6636,1.51301 0.9934,1.51301 0.3297,0 0.5995,1.21041 0.5995,2.68979 0,1.47938 -0.2698,2.68979 -0.5995,2.68979 -0.3298,0 -0.803,0.81071 -1.0517,1.80158 -0.6847,2.7279 -6.9639,8.42005 -15.0632,13.65487 -2.2972,1.48479 -4.444,2.69962 -4.7705,2.69962 -0.3266,0 -0.6946,0.23261 -0.8179,0.51693 -0.2852,0.65784 -8.8769,6.75901 -10.2718,7.29428 -0.9361,0.35922 -1.0477,-2.05929 -1.0477,-22.7062 z"
     id="path3015"
     inkscape:connector-curvature="0" />
  <path
     style="fill:#cf4707;fill-opacity:1"
     d="m 414.58924,245.42511 c 0.2296,-15.72374 0.6349,-33.0092 0.9006,-38.41215 l 0.483,-9.82353 4.3709,1.29862 c 2.404,0.71424 4.9761,1.55217 5.7158,1.86206 0.7397,0.3099 3.0092,1.07343 5.0434,1.69674 4.5857,1.40515 13.8114,5.39014 14.7938,6.39006 0.1849,0.18822 1.4689,1.09603 2.8533,2.01734 1.3844,0.92131 2.5192,1.90207 2.5217,2.17945 0,0.27739 0.3476,0.50434 0.7669,0.50434 0.7448,0 7.3071,6.29527 7.3071,7.00981 0,0.19854 1.0406,1.9878 2.3125,3.97613 2.2149,3.46232 2.7155,5.31141 4.1904,15.47579 0.2067,1.42443 0.062,3.24004 -0.3215,4.03469 -0.3835,0.79464 -0.8876,2.31572 -1.1202,3.38016 -0.4567,2.08988 -4.2514,8.36427 -6.2375,10.31363 -0.6724,0.65998 -2.4984,2.07327 -4.0578,3.14064 -1.5594,1.06738 -2.8353,2.20213 -2.8353,2.52168 0,0.31954 -0.3448,0.58099 -0.7662,0.58099 -0.4214,0 -2.2115,0.88931 -3.978,1.97624 -1.7664,1.08692 -4.372,2.18548 -5.7901,2.44124 -1.4181,0.25575 -2.881,0.69395 -3.2509,0.97375 -0.3698,0.27981 -1.9585,0.72084 -3.5303,0.98009 -1.5719,0.25925 -2.8579,0.71212 -2.8579,1.00637 0,0.29425 -2.0426,0.75132 -4.539,1.01572 -2.4965,0.26439 -4.8417,0.72107 -5.2115,1.01485 -0.3698,0.29377 -2.1368,0.64658 -3.9266,0.78401 l -3.2541,0.24989 0.4175,-28.58861 z"
     id="path3021"
     inkscape:connector-curvature="0" />
  <path
     style="fill:#ffffff;fill-opacity:1"
     d="m 49.70399,278.64198 c 0.006,-0.33705 4.86273,-5.75702 10.7917,-12.0444 L 71.27562,255.16598 70.8871,241.71704 C 70.3564,223.3463 69.32837,158.31283 68.77485,108.09627 L 68.31747,66.600751 58.25232,55.645409 c -12.31661,-13.405928 -15.957,-17.624528 -15.957,-18.49145 0,-0.782311 10.00981,-1.533347 20.50963,-1.538837 4.06831,-0.0021 12.84374,-0.28749 19.50097,-0.634138 6.65722,-0.346649 21.48468,-0.819947 32.9499,-1.051773 l 20.84586,-0.421503 -12.04493,12.095371 -12.04494,12.095371 0.46193,16.695235 c 0.25406,9.182371 0.74882,19.569941 1.09945,23.083471 0.35063,3.513534 0.64787,10.322054 0.66052,15.130054 0.0126,4.808 0.21591,10.78437 0.45168,13.28083 l 0.42868,4.53902 37.78482,0 37.78481,0 -0.23629,-5.21147 c -0.12995,-2.8663 -0.52496,-16.53008 -0.8778,-30.363944 -0.72899,-28.582409 -0.12242,-25.941303 -7.04918,-30.693279 -1.86018,-1.27614 -5.34905,-3.809795 -7.75305,-5.630344 -2.404,-1.820548 -6.74278,-5.073657 -9.64173,-7.229128 l -5.27083,-3.91904 8.96929,-0.419161 c 4.9331,-0.23054 28.78966,-0.625788 53.01456,-0.878332 l 44.04528,-0.45917 -2.68979,2.384533 c -2.98165,2.643279 -5.63391,4.704814 -13.11271,10.192178 -2.77385,2.035233 -6.07424,4.594083 -7.3342,5.686334 -1.25997,1.092251 -2.54603,1.985911 -2.8579,1.985911 -0.31188,0 -0.56706,41.528762 -0.56706,92.286142 l 0,92.28614 11.15643,11.17093 11.15643,11.17092 -3.06765,0.42047 c -5.38781,0.73849 -92.77395,1.92899 -94.49051,1.2873 -1.86906,-0.69871 -3.31964,0.66056 15.0613,-14.11324 10.44341,-8.39397 10.77248,-8.7355 11.21364,-11.63842 0.60176,-3.95973 0.66673,-37.31779 0.11223,-57.6192 l -0.44195,-16.1806 -4.09707,-0.41244 c -2.25338,-0.22685 -11.20819,-0.8663 -19.89957,-1.42101 -8.69138,-0.55471 -21.55193,-1.45624 -28.579,-2.0034 -7.02707,-0.54715 -14.70663,-0.99695 -17.06569,-0.99956 l -4.28919,-0.005 0.42825,7.90125 c 0.23554,4.34569 0.87277,19.7027 1.41605,34.12669 1.25713,33.37592 1.3487,34.5057 2.93826,36.25267 1.23971,1.36246 21.04021,27.16332 21.84316,28.46253 0.24376,0.39441 -0.84366,0.52714 -2.78801,0.34031 -1.7532,-0.16846 -13.0149,0.0285 -25.02598,0.43753 -36.1006,1.22958 -65.21219,1.68482 -65.19943,1.01957 l 0,-4e-5 z"
     id="path3023"
     inkscape:connector-curvature="0" />
  <path
     style="fill:#ffffff;fill-opacity:1"
     d="m 49.70399,278.64215 c 0.006,-0.33714 4.86273,-5.75719 10.7917,-12.04457 l 10.77993,-11.4316 -0.39104,-13.44894 C 70.34628,223.20337 69.32635,158.71595 68.77656,108.43343 L 68.31919,66.602624 58.25318,55.646345 C 45.93572,42.239481 42.29532,38.020895 42.29532,37.153959 c 0,-0.782311 10.00981,-1.533347 20.50963,-1.538837 4.06831,-0.0021 12.84374,-0.28836 19.50097,-0.636073 6.65722,-0.347713 21.48468,-0.823129 32.9499,-1.056481 l 20.84586,-0.424275 -12.04415,12.099286 -12.04414,12.099285 0.46729,16.696021 c 0.25701,9.182821 0.7514,19.570741 1.09866,23.084271 0.34725,3.513534 0.64172,10.322054 0.65437,15.130054 0.0126,4.808 0.21591,10.78437 0.45168,13.28083 l 0.42868,4.53902 37.79503,0 37.79503,0 -0.24697,-4.87525 c -0.13582,-2.68138 -0.53522,-16.18642 -0.88755,-30.011194 -0.70909,-27.824117 -0.50989,-26.711999 -5.39356,-30.111429 -1.50964,-1.050832 -5.14522,-3.726211 -8.07907,-5.945286 -2.93384,-2.219075 -7.82745,-5.850289 -10.87468,-8.069364 l -5.54043,-4.034682 8.54251,-0.414965 c 4.69837,-0.228231 28.59384,-0.623518 53.10103,-0.878415 l 44.55854,-0.46345 -2.68979,2.383166 c -2.78736,2.469621 -6.52918,5.390373 -13.44894,10.497864 -2.21907,1.637904 -5.47203,4.164445 -7.2288,5.614536 l -3.19413,2.636529 0,91.84465 0,91.84466 11.15643,11.17093 11.15643,11.17092 -3.09669,0.42445 c -4.61068,0.63196 -91.05159,1.96395 -93.81459,1.44561 l -2.37803,-0.44613 2.37503,-2.1252 c 1.30626,-1.16886 7.41022,-6.16822 13.56436,-11.10969 6.15413,-4.94148 11.41524,-9.48049 11.69135,-10.0867 0.80923,-1.7767 1.11494,-29.5684 0.59017,-53.65103 l -0.48569,-22.2887 -4.12649,-0.41559 c -2.26957,-0.22858 -11.23762,-0.86945 -19.929,-1.42416 -8.69138,-0.55471 -21.55193,-1.45624 -28.579,-2.0034 -7.02707,-0.54715 -14.70668,-0.99695 -17.0658,-0.99956 l -4.28931,-0.005 0.42079,7.22881 c 0.23143,3.97584 0.8855,19.93805 1.45348,35.47158 0.56799,15.53352 1.18832,29.50016 1.37851,31.03696 0.29006,2.34395 2.16331,5.16719 11.62511,17.52076 6.20362,8.09962 11.4747,15.04272 11.7135,15.42911 0.28789,0.46582 -0.641,0.59921 -2.75689,0.39591 -1.7551,-0.16865 -12.86549,0.0266 -24.68976,0.43387 -35.43068,1.22037 -65.545,1.6908 -65.53221,1.02372 l 0,-4e-5 z"
     id="path3025"
     inkscape:connector-curvature="0" />
  <path
     style="fill:#ffffff;fill-opacity:1"
     d="m 49.7054,278.53351 c 0.007,-0.27738 4.8583,-5.64855 10.78013,-11.93593 L 71.2525,255.16598 70.8749,242.05326 C 70.33409,223.27294 69.30243,157.9229 68.77144,108.81004 L 68.31598,66.683387 58.25072,55.686727 C 45.82145,42.107303 42.29532,38.011411 42.29532,37.153233 c 0,-0.799968 9.4713,-1.539885 19.77238,-1.544659 4.10395,-0.0019 13.05984,-0.287261 19.90199,-0.634132 6.84215,-0.34687 21.82091,-0.824664 33.28613,-1.061765 l 20.84586,-0.431093 -12.04174,12.105233 -12.04174,12.105233 0.47273,16.362205 c 0.25999,8.99922 0.75331,19.236921 1.09625,22.750461 0.34294,3.513524 0.63173,10.200744 0.64175,14.860474 0.01,4.65974 0.21392,10.78741 0.45312,13.61705 l 0.43489,5.14482 37.8048,0 37.8048,0 -0.25647,-4.53902 c -0.14107,-2.49646 -0.5492,-15.77709 -0.90697,-29.512524 -0.35776,-13.735431 -0.94047,-25.736235 -1.2949,-26.668458 -0.35443,-0.932223 -1.99672,-2.705994 -3.64952,-3.941713 -1.65281,-1.235719 -7.93793,-5.877976 -13.96694,-10.316126 l -10.96185,-8.069364 8.71553,-0.423401 c 4.79354,-0.232871 28.6872,-0.626048 53.09703,-0.873729 l 44.3815,-0.450327 -3.02601,2.710992 c -1.66431,1.491046 -4.79753,4.002432 -6.96273,5.580857 -2.16519,1.578427 -6.77986,5.082128 -10.25481,7.786005 l -6.31811,4.916139 0,91.923869 0,91.92387 11.10746,11.08774 11.10746,11.08773 -2.53376,0.45734 c -4.42239,0.79824 -94.08872,2.09404 -95.36786,1.37819 -0.99452,-0.55656 -0.43843,-1.24294 3.80679,-4.69868 2.73429,-2.22581 8.75395,-7.13041 13.37702,-10.89912 4.62308,-3.76871 8.70819,-7.35817 9.07804,-7.97656 0.65204,-1.09025 0.79612,-75.19402 0.14746,-75.84267 -0.15966,-0.15967 -11.3031,-1.04068 -24.76319,-1.95781 -13.4601,-0.91714 -28.22371,-1.96932 -32.80803,-2.33819 -4.58432,-0.36887 -10.14578,-0.67067 -12.35878,-0.67067 l -4.02366,0 0.40919,6.55636 c 0.22506,3.606 0.90115,19.87081 1.50244,36.14402 0.60129,16.27322 1.36541,30.68459 1.69805,32.02526 0.37876,1.52654 4.71807,7.84409 11.61012,16.90309 6.05293,7.95603 11.20246,14.78447 11.4434,15.17431 0.28779,0.46567 -0.3168,0.58946 -1.76245,0.3609 -1.21029,-0.19136 -17.93578,0.12926 -37.16777,0.71248 -38.41088,1.16482 -54.13894,1.32631 -54.11882,0.55566 z"
     id="path3027"
     inkscape:connector-curvature="0" />
  <path
     style="fill:#ffffff;fill-opacity:1"
     d="m 49.70619,278.64215 c 0.008,-0.33714 4.85183,-5.75719 10.76478,-12.04457 L 71.2218,255.16598 70.85644,242.72571 C 70.31774,224.38335 69.29231,159.06193 68.77045,109.84509 L 68.31335,66.736165 57.91922,55.376892 C 45.77877,42.109137 42.29532,38.034055 42.29532,37.099426 c 0,-0.400415 3.38348,-0.833035 8.23747,-1.053263 15.53262,-0.704721 48.59079,-1.784706 67.07659,-2.191342 l 18.4923,-0.406778 -12.04113,12.1214 -12.04114,12.121399 0.47016,15.437533 c 0.25859,8.49064 0.7549,18.879921 1.10293,23.087281 0.34802,4.207354 0.6395,11.129654 0.64774,15.382884 0.008,4.25323 0.20931,10.2296 0.44683,13.28083 l 0.43186,5.54769 37.82982,0 37.82982,0 -0.27405,-3.86657 c -0.15072,-2.12662 -0.58833,-15.32915 -0.97244,-29.338964 -0.5018,-18.301691 -0.94957,-26.062987 -1.59063,-27.570331 -0.49073,-1.153861 -2.14236,-3.005733 -3.6703,-4.115271 -4.45779,-3.237105 -11.44582,-8.385511 -18.25448,-13.44894 l -6.32955,-4.707129 8.71691,-0.426054 c 4.7943,-0.23433 28.68859,-0.627273 53.09842,-0.873207 l 44.3815,-0.447154 -3.30624,2.890548 c -1.81843,1.589802 -7.71915,6.227641 -13.11272,10.306309 l -9.80647,7.415761 -0.17052,92.096772 -0.17051,92.09678 11.16044,11.17495 11.16045,11.17496 -2.58435,0.42179 c -4.66202,0.76088 -94.16207,1.97692 -95.37898,1.29591 -1.26683,-0.70896 -1.55343,-0.44201 14.79079,-13.77674 4.808,-3.9227 9.49831,-7.93873 10.42293,-8.92451 l 1.68112,-1.79232 -0.10912,-37.3194 c -0.06,-20.52566 -0.22974,-37.44003 -0.37718,-37.58747 -0.26786,-0.26785 -51.88816,-4.00189 -66.32606,-4.7978 l -7.63701,-0.421 0.41064,6.99931 c 0.22584,3.84962 0.86722,19.10335 1.42528,33.89718 0.55806,14.79384 1.18979,28.82207 1.40384,31.17385 l 0.38917,4.27597 11.0228,14.67405 c 6.06254,8.07072 11.33045,14.86418 11.70646,15.09656 1.19537,0.73878 0.73529,1.79506 -0.5976,1.37203 -0.70469,-0.22366 -11.97658,-0.0923 -25.04865,0.29193 -42.79125,1.25777 -67.14078,1.61082 -67.12627,0.97329 l 0,0 z"
     id="path3029"
     inkscape:connector-curvature="0" />
  <path
     style="fill:#ffffff;fill-opacity:1"
     d="m 395.14324,308.35699 c -0.2056,-0.2056 -15.6367,-0.68911 -34.2914,-1.07447 -18.65467,-0.38536 -37.37911,-0.87946 -41.60985,-1.09801 l -7.69227,-0.39735 2.64891,-1.58842 c 18.70736,-11.21782 29.18676,-17.35801 32.90903,-19.28235 2.21908,-1.14722 5.14275,-2.9435 6.49705,-3.99173 1.35431,-1.04823 3.54816,-2.35955 4.87524,-2.91404 l 2.41288,-1.00816 -0.0233,-81.18896 -0.0233,-81.18895 -4.33993,-3.69846 C 332.22562,90.234266 327.27055,85.884806 327.27055,85.263546 c 0,-0.86328 8.3356,-0.47331 23.53564,1.10109 16.2529,1.68345 28.26342,2.87241 40.68302,4.02734 6.2874,0.58468 11.8855,1.18997 12.4403,1.34509 0.5548,0.15512 5.699,0.61807 11.4316,1.02879 5.7326,0.41071 12.5411,1.03467 15.1301,1.38658 2.5889,0.3519 7.8844,0.93371 11.7678,1.29289 8.995,0.83198 20.8218,2.47653 24.4347,3.39772 5.2318,1.333964 15.5632,5.597884 19.0429,7.859314 5.7161,3.71471 12.4997,11.35751 13.9028,15.66358 4.9252,15.11549 2.3134,25.78278 -9.6822,39.54408 -4.5181,5.1832 -13.5137,12.37793 -20.1279,16.09838 -2.8747,1.61704 -8.9765,5.28604 -11.9313,7.17431 -1.1995,0.76652 -2.183,1.756 -2.1855,2.19885 -0.01,0.89202 4.9699,3.56894 9.0999,4.89645 3.7755,1.21354 7.4771,2.87975 17.4572,7.85801 9.4906,4.73411 10.4275,5.24481 13.4489,7.33062 1.1096,0.76597 3.6817,2.33565 5.7158,3.48817 2.1241,1.20348 6.7381,5.19138 10.8389,9.36818 7.6244,7.76556 10.5284,12.39212 12.0246,19.15724 0.9115,4.12129 0.563,21.77592 -0.5367,27.19197 -0.8431,4.1521 -4.0932,13.65477 -5.1493,15.05543 -0.4183,0.55477 -1.1913,1.86779 -1.7178,2.91783 -2.0779,4.14415 -14.672,13.46031 -21.8479,16.16144 -8.7559,3.29582 -21.0925,5.53022 -36.3122,6.5768 -11.1935,0.76973 -63.0012,1.56267 -63.5906,0.97329 l 0,0 z m 29.2958,-35.65343 c 10.0062,-2.11743 18.6353,-4.79273 23.1521,-7.1779 8.4689,-4.47219 14.8131,-11.60657 17.4995,-19.67934 1.4013,-4.21099 1.4118,-4.50437 0.3796,-10.61821 -0.679,-4.02124 -1.842,-7.86304 -3.2266,-10.65847 -3.4185,-6.90199 -11.7533,-14.50924 -20.3209,-18.54714 -5.3211,-2.50781 -25.6315,-9.50509 -26.1333,-9.00334 -0.4084,0.40842 -1.7733,51.46626 -1.7733,66.33596 0,12.85549 -1.174,11.8025 10.4229,9.34844 z m -2.9285,-105.47775 c 2.7202,-1.95143 6.87,-4.71673 9.2217,-6.1451 10.6691,-6.48009 18.2256,-14.38276 18.2448,-19.08073 0.025,-6.01602 -8.8667,-13.7479 -17.9837,-15.6385 -5.5811,-1.15735 -11.1813,-1.95898 -13.7831,-1.97293 l -2.5217,-0.0135 0,22.13576 c 0,21.22772 0.1685,24.26309 1.3462,24.26309 0.2914,0 2.7555,-1.59663 5.4758,-3.54807 l 0,0 z"
     id="path3031"
     inkscape:connector-curvature="0" />
  <path
     style="fill:#ffffff;fill-opacity:1"
     d="m 394.47234,308.35849 c -0.2043,-0.20423 -15.4839,-0.68815 -33.95473,-1.07537 -18.47085,-0.38722 -37.04488,-0.88222 -41.27562,-1.1 l -7.69227,-0.39596 2.64891,-1.58842 c 1.45691,-0.87363 3.70802,-2.22283 5.00248,-2.99824 1.29446,-0.7754 7.64909,-4.52802 14.12139,-8.33915 6.4723,-3.81113 13.97927,-8.25357 16.68216,-9.87208 2.70288,-1.61852 6.25757,-3.69926 7.8993,-4.62387 l 2.98497,-1.68112 -0.0214,-81.02986 -0.0214,-81.02987 -4.33993,-3.69846 C 332.22552,90.234266 327.27045,85.884806 327.27045,85.263546 c 0,-0.86328 8.3356,-0.47331 23.53564,1.10109 16.2529,1.68345 28.26342,2.87241 40.68302,4.02734 6.2874,0.58468 11.8855,1.19074 12.4403,1.34681 0.5548,0.15606 5.699,0.61328 11.4316,1.01604 5.7326,0.40276 12.5411,1.02595 15.1301,1.38487 2.5889,0.35891 7.8844,0.94645 11.7678,1.30563 8.995,0.83198 20.8218,2.47653 24.4347,3.39772 5.2318,1.333964 15.5632,5.597884 19.0429,7.859314 1.9069,1.23925 5.5446,4.44022 8.0837,7.11327 5.1358,5.40664 6.4462,8.34383 7.7932,17.46774 0.6556,4.44071 0.5974,6.05639 -0.3868,10.73797 -2.6037,12.38455 -14.7982,26.32594 -31.62,36.14945 -7.9147,4.62202 -9.6969,5.68617 -11.7087,6.99105 -1.1995,0.778 -2.183,1.77687 -2.1855,2.21972 -0.01,0.89202 4.9699,3.56894 9.0999,4.89645 3.7755,1.21354 7.4771,2.87975 17.4572,7.85801 9.4906,4.73411 10.4275,5.24481 13.4489,7.33062 1.1096,0.76597 3.6817,2.33565 5.7158,3.48817 2.1241,1.20348 6.7381,5.19138 10.8389,9.36818 7.6244,7.76556 10.5284,12.39212 12.0246,19.15724 0.9249,4.18177 0.5574,21.77648 -0.5727,27.4195 -0.8412,4.20056 -3.9915,13.33144 -5.116,14.8279 -0.4168,0.55477 -1.1886,1.86779 -1.7151,2.91783 -2.0779,4.14415 -14.672,13.46031 -21.8479,16.16144 -8.7546,3.29535 -21.0899,5.52972 -36.3122,6.57743 -11.1462,0.76716 -63.6723,1.56342 -64.2615,0.97416 z m 28.7012,-35.38901 c 15.9227,-3.27621 25.3852,-7.1352 32.2892,-13.16814 4.9237,-4.30244 7.9943,-8.86927 9.7445,-14.4928 1.2336,-3.96337 1.2413,-4.39878 0.1833,-10.25356 -1.9351,-10.70868 -5.6655,-16.68099 -14.5913,-23.36049 -3.0329,-2.2696 -7.3949,-4.98967 -9.6934,-6.04459 -4.9554,-2.27432 -24.8891,-9.05919 -25.3246,-8.61982 -0.3849,0.3882 -1.7678,52.00564 -1.7662,65.92507 6e-4,5.76344 0.2028,10.68071 0.4494,10.92727 0.6625,0.66252 1.4571,0.57922 8.7091,-0.91294 l 0,0 z m -0.7867,-106.28142 c 2.6081,-1.84432 7.4654,-5.13189 10.794,-7.30572 9.6274,-6.28735 15.8025,-13.20459 15.8025,-17.70147 0,-3.82427 -6.7637,-11.22131 -12.3932,-13.55368 -3.4984,-1.44945 -10.991,-3.00094 -17.0263,-3.52565 l -4.8753,-0.42385 0.01,21.78509 c 0.01,11.9818 0.1961,22.48305 0.4246,23.33612 0.5197,1.94069 1.1467,1.71537 7.2645,-2.61084 l -10e-5,0 z"
     id="path3033"
     inkscape:connector-curvature="0" />
</svg>
