<?xml version="1.0" encoding="UTF-8" standalone="no"?>
<svg
   xmlns:dc="http://purl.org/dc/elements/1.1/"
   xmlns:cc="http://creativecommons.org/ns#"
   xmlns:rdf="http://www.w3.org/1999/02/22-rdf-syntax-ns#"
   xmlns:svg="http://www.w3.org/2000/svg"
   xmlns="http://www.w3.org/2000/svg"
   height="210"
   width="475.022"
   xml:space="preserve"
   viewBox="0 0 475.022 210"
   y="0px"
   x="0px"
   id="Layer_1"
   version="1.1"><metadata
     id="metadata59"><rdf:RDF><cc:Work
         rdf:about=""><dc:format>image/svg+xml</dc:format><dc:type
           rdf:resource="http://purl.org/dc/dcmitype/StillImage" /><dc:title></dc:title></cc:Work></rdf:RDF></metadata><defs
     id="defs57" /><g
     transform="matrix(0.42832778,0,0,0.42832778,-5.1763768,-2.102)"
     id="g64"><path
       d="m 401.2,241.3 c 2.3,3.2 4.4,7.6 5.4,5.4 7.6,-9.8 7.6,-22.8 10.9,-34.8 8.7,-37 4.4,-74 17.4,-108.8 0,-1.1 2.2,-3.3 4.3,-5.4 5.4,-3.3 12,-3.3 17.4,-3.3 18.5,-1.1 38.1,0 56.6,0 10.9,0 21.7,4.4 29.4,14.1 3.3,4.4 6.5,9.8 2.2,15.2 -1.1,1.1 0,4.3 0,5.4 -5.5,9.8 -14.1,21.8 -26.1,19.6 -5.4,0 -10.9,-2.2 -17.4,-3.3 -6.5,-1.1 -12,0 -17.4,0 -6.5,1.1 -6.5,8.7 -4.4,14.1 1.1,3.3 5.4,6.5 8.7,7.6 4.3,2.2 9.8,0 15.2,-1.1 7.6,-2.2 15.2,0 22.8,1.1 4.4,0 9.8,5.4 12,10.9 4.3,13.1 2.2,28.3 -6.5,38.1 -12,14.1 -31.5,1.1 -48.9,5.4 -3.3,0 -7.6,0 -7.6,3.3 -1.1,12 -2.2,25 1.1,37 1.1,5.4 9.8,4.3 15.2,3.3 15.2,-2.2 28.3,-3.3 43.5,-6.5 1.1,0 3.3,-1.1 5.4,-2.2 3.3,0 5.4,0 8.7,1.1 1.1,0 3.3,-2.2 3.3,-3.3 -2.2,-15.2 -1.1,-29.4 2.2,-44.6 0,-2.2 2.2,-4.4 2.2,-5.4 6.5,-41.3 6.5,-80.5 3.3,-121.8 -3.3,-23.9 3.3,-46.8 4.3,-70.7 0,-2.2 3.3,-6.5 6.5,-6.5 4.3,-1.1 8.7,1.1 12,3.3 3.3,5.4 9.8,6.5 13,12 1.1,2.2 1.1,5.4 3.3,6.5 1.1,0 2.2,1.1 3.3,2.2 6.5,12 4.4,25 7.6,37 2.2,10.9 0,22.8 2.2,34.8 3.3,15.2 1.1,28.3 3.3,43.5 3.3,18.5 1.1,35.9 0,54.4 0,0 1.1,3.3 -1.1,3.3 2.2,6.5 1.1,14.1 1.1,20.7 0,10.9 1.1,20.7 1.1,31.5 -1.1,12 -1.1,25 2.2,37 6.5,-1.1 16.3,0 18.5,-5.4 2.2,-4.4 0,-12 -1.1,-18.5 -2.2,-22.8 3.3,-45.7 3.3,-67.4 0,-10.9 -3.3,-22.8 -1.1,-33.7 1.1,-15.2 4.3,-28.3 6.5,-43.5 1.1,-20.7 -2.2,-40.2 2.2,-60.9 0,-2.2 2.2,-7.6 3.3,-7.6 10.9,-3.3 22.8,-9.8 32.6,-4.3 4.4,2.2 6.5,8.7 7.6,14.1 4.4,15.2 4.4,29.4 4.4,44.6 1.1,12 2.2,23.9 0,35.9 0,3.3 0,7.6 0,10.9 0,3.3 2.2,7.6 3.3,10.9 4.4,17.4 6.5,33.7 8.7,51.1 1.1,2.2 2.2,5.4 4.3,5.4 8.7,-1.1 21.8,3.3 25,-4.3 3.3,-9.8 0,-19.6 -3.3,-30.5 -2.2,-9.8 0,-18.5 2.2,-27.2 1.1,-2.2 4.4,-2.2 5.4,-4.3 0,-2.2 0,-4.4 2.2,-5.4 12,-5.4 22.8,3.3 33.7,8.7 1.1,0 2.2,3.3 1.1,5.4 0,2.2 0,5.4 0,7.6 3.3,8.7 -1.1,17.4 5.4,25 4.3,-17.4 6.5,-34.8 14.1,-51.1 5.4,-13.1 14.1,-22.8 26.1,-31.5 5.4,-4.4 13.1,-7.6 20.7,-9.8 7.6,-1.1 14.1,-2.2 20.7,-1.1 8.7,0 16.3,4.3 19.6,12 4.4,13.1 18.5,19.6 21.8,34.8 0,2.2 0,3.3 0,5.4 0,1.1 1.1,1.1 2.2,1.1 5.4,-13 5.4,-27.2 6.5,-41.3 0,-1.1 1.1,-3.3 2.2,-4.3 6.5,-4.4 8.7,-10.9 15.2,-15.2 13.1,-6.5 31.5,-6.5 39.2,6.5 7.6,10.9 12,22.8 14.1,34.8 3.3,20.7 9.8,40.2 18.5,58.7 5.4,-4.4 4.4,-12 5.4,-17.4 5.4,-25 3.3,-47.9 9.8,-71.8 1.1,-7.6 1.1,-15.2 4.4,-22.8 5.4,-8.7 12,-18.5 23.9,-16.3 4.3,1.1 8.7,3.3 13.1,5.4 5.4,2.2 5.4,12 8.7,17.4 -3.3,1.1 -2.2,5.4 -2.2,7.6 -2.1,13.1 -2.1,27.2 -5.4,40.2 -1.1,4.4 -3.3,8.7 -3.3,13.1 -3.3,12 -4.4,23.9 0,35.9 2.2,7.6 4.3,15.2 5.4,23.9 0,16.3 1.1,31.5 1.1,47.9 -1.1,4.3 2.2,9.8 1.1,14.1 -2.2,6.5 -1.1,12 -3.3,18.5 -2.2,9.8 -5.4,20.7 -6.5,30.5 -2.2,19.6 -6.5,38.1 -14.1,55.5 -1.1,2.2 -3.3,3.3 -5.4,4.3 -6.5,1.1 -13,1.1 -19.6,0 -9.8,-2.2 -13,-9.8 -16.3,-17.4 -2.2,-7.6 -2.2,-16.3 -4.4,-23.9 -4.3,-10.9 -10.9,-20.6 -14.1,-31.5 -3.3,-13.1 -5.4,-26.1 -8.7,-39.2 -1.1,-5.4 -2.2,-14.1 -7.6,-15.2 -4.3,-1.1 -3.3,7.6 -4.3,10.9 -4.4,19.6 2.2,39.2 -3.3,58.7 -2.2,8.7 -7.6,16.3 -15.2,21.7 -7.6,4.4 -16.3,7.6 -25,9.8 -14.1,2.2 -25,-14.1 -28.3,-26.1 -7.6,3.3 -10.9,10.9 -18.5,14.1 -5.4,1.1 -9.8,2.2 -15.2,3.3 -15.2,1.1 -30.5,0 -44.6,-8.7 -7.6,-4.3 -13.1,-10.9 -18.5,-17.4 -1.1,1.1 -2.2,1.1 -2.2,2.2 -1.1,16.3 5.5,31.5 1.1,47.8 -1.1,5.4 -6.5,9.8 -10.9,14.1 -8.7,6.5 -19.6,5.4 -30.5,6.5 -8.7,2.2 -16.3,-3.3 -20.7,-8.7 -4.4,-4.3 -4.4,-10.9 -5.4,-16.3 0,-6.5 2.2,-13.1 1.1,-19.6 -3.3,-15.2 4.4,-29.4 4.4,-44.6 -10.9,-5.4 -22.8,-3.3 -34.8,-5.4 -2.2,0 -5.4,1.1 -5.4,2.2 -4.4,7.6 -2.2,15.2 -3.3,23.9 -1.1,1.1 -2.2,3.3 -2.2,4.4 -1.1,13.1 -7.6,23.9 -18.5,30.5 -3.3,2.2 -7.6,1.1 -10.9,3.3 -5.4,1.1 -10.9,0 -16.3,-1.1 -18.5,-2.2 -35.9,-5.4 -54.4,-6.5 -5.4,-1.1 -10.9,-2.2 -16.3,-1.1 -6.5,1.1 -13.1,-1.1 -18.5,-3.3 -7.6,-4.4 -6.5,-14.1 -8.7,-21.8 -14.1,2.2 -26.1,6.5 -40.2,10.9 -5.4,1.1 -9.8,-3.3 -14.1,-2.2 -3.3,0 -6.5,2.2 -9.8,1.1 -16.3,0 -32.6,2.2 -47.9,6.5 -7.6,3.3 -14.1,-2.2 -16.3,-6.5 -1.1,-2.2 -4.4,-6.5 -1.1,-9.8 -1.1,-1.1 -1.1,-4.3 -3.3,-3.3 -6.5,4.4 -9.8,9.8 -15.2,15.2 -7.6,6.5 -17.4,9.8 -26.1,13.1 -9.8,5.4 -20.7,3.3 -31.5,5.4 -8.7,0 -17.4,-3.3 -25,0 -4.3,1.1 -8.7,0 -13,1.1 -7.6,2.2 -16.3,2.2 -20.7,-4.4 -4.3,-4.4 -4.3,-12 -4.3,-18.5 -1.1,-6.5 1.1,-13 -1.1,-18.5 -1.1,-6.5 4.3,-14.1 -1.1,-17.4 -3.3,-2.2 -8.7,0 -13,1.1 -10.9,2.2 -19.6,-1.1 -30.5,-3.3 -7.6,-2.2 -17.4,-3.3 -21.7,2.2 -3.3,3.3 5.4,9.8 6.5,15.2 2.2,4.4 2.2,9.8 1.1,15.2 -1.1,1.1 -2.2,3.3 -2.2,4.4 -1.1,4.4 -2.2,8.7 -4.3,12 -8.7,8.7 -21.8,14.1 -33.7,10.9 -8.7,-3.3 -16.3,-9.8 -21.8,-17.4 -10.9,-18.5 -20.7,-37 -30.4,-56.6 -2.2,-4.3 -3.3,-10.9 -8.7,-14.1 0,0 -2.2,1.1 -2.2,2.2 -1.1,19.6 7.6,37 4.3,56.6 -1.1,3.3 -3.3,6.5 -4.3,10.9 -3.3,6.5 -8.7,12 -15.2,14.1 -15.2,3.3 -32.6,-3.3 -38.1,-15.2 -2.2,-6.5 1.1,-15.2 0,-22.8 -1.1,-7.6 2.2,-15.2 1.1,-22.8 -3.3,-15.2 -3.3,-29.4 -5.4,-44.6 -1.1,-10.9 -3.3,-21.8 -4.3,-32.6 -3.3,-23.9 -4.4,-46.8 -8.7,-71.8 -2.2,-7.6 0,-14.1 0,-21.8 -1.1,-2.2 -2.2,-5.4 -4.3,-6.5 -5.4,0 -10.9,2.2 -16.3,-1.1 -3.3,-2.2 -3.3,-6.5 -4.3,-9.8 -1.1,-7.6 4.3,-15.2 3.3,-22.8 -1,-4.3 -6.5,-8.7 -4.3,-13 2.2,-7.6 6.5,-14.1 13,-18.5 C 39,42.3 53.2,35.7 67.3,30.3 74.9,27 83.6,24.9 91.2,23.8 c 5.4,0 10.9,1.1 17.4,0 10.9,-1.1 21.8,3.3 27.2,12 9.8,15.2 15.2,30.4 22.8,45.7 4.4,10.9 2.2,21.7 5.4,33.7 1.1,9.8 1.1,18.5 -2.2,27.2 -2.2,3.3 -5.4,5.4 -5.4,8.7 -2.2,5.4 -3.3,12 -7.6,16.3 0,1.1 0,3.3 0,4.3 -2.2,5.4 -9.8,9.8 -7.6,16.3 7.6,16.3 17.4,30.5 28.3,44.6 6.5,-29.4 0,-59.8 4.4,-90.3 1.1,-6.5 1.1,-14.1 3.3,-20.7 3.3,-9.8 3.3,-20.7 2.2,-30.5 -3.3,-15.2 -1.1,-35.9 13.1,-43.5 1.1,2.2 3.3,4.3 4.4,4.3 3.2,-1.1 5.4,-1.1 8.7,-1.1 16.3,2.2 32.6,8.7 50,5.4 9.8,-1.1 19.6,-3.3 28.3,1.1 13.1,6.5 16.3,26.1 10.9,40.2 -4.4,10.9 -16.3,16.3 -28.3,16.3 -13.1,-1.1 -30.4,-8.7 -40.2,1.1 0,1.1 0,4.3 0,6.5 0,7.6 -2.2,15.2 -1.1,22.8 1.1,1.1 0,3.3 2.2,3.3 10.9,2.2 20.7,0 31.5,0 7.6,0 15.2,1.1 22.8,0 0,0 3.3,1.1 3.3,-1.1 0,-9.8 0,-18.5 5.4,-27.2 0,0 3.3,-2.2 4.4,-2.2 15.2,1.1 30.4,1.1 46.8,4.4 10.9,2.2 20.7,7.6 27.2,17.4 6.5,10.9 15.2,20.7 19.6,32.6 2.2,6.5 3.3,13 2.2,19.6 -1.1,10.9 -8.7,18.5 -17.4,25 6.2,11.2 20.4,14.4 28,25.3 z m 372,-169.7 c -3.3,-5.4 -7.6,-6.5 -13.1,-6.5 -12,-1.1 -27.2,1.1 -30.4,13.1 -2.2,14.1 -2.2,29.4 3.3,42.4 1.1,2.2 4.4,5.4 6.5,7.6 7.6,4.3 15.2,7.6 23.9,6.5 6.5,-1.1 12,-5.4 16.3,-10.9 4.3,-6.5 4.3,-13.1 7.6,-19.6 0,-2.2 1.2,-5.6 -1.1,-7.6 -7.6,-6.5 -8.7,-16.3 -13,-25 z m -116.4,360 c 31.5,-5.4 62,-10.9 93.5,-12 3.3,0 6.5,-2.2 8.7,-1.1 33.7,1.1 68.5,-3.3 102.2,-1.1 6.5,0 13,2.2 19.6,3.3 18.5,0 35.9,-1.1 54.4,-2.2 3.3,0 8.7,1.1 10.9,3.3 7.6,9.8 16.3,16.3 28.3,15.2 21.7,0 43.5,0 65.3,2.2 8.7,1.1 19.6,5.4 23.9,-2.2 6.5,-10.9 -3.3,-22.8 -14.1,-25 -20.7,-3.3 -40.3,-6.5 -59.8,-5.4 -50,1.1 -101.1,0 -151.2,-2.2 -23.9,-1.1 -47.9,0 -71.8,-2.2 -42.4,-4.4 -83.8,1.1 -125.1,-8.7 -80.5,-1.1 -161,0 -241.5,4.4 -45.7,2.2 -90.3,3.3 -137,9.8 -4.3,1.1 -9.8,0 -15.2,1.1 -3.3,1.1 -7.6,1.1 -10.9,1.1 -35.9,1.1 -71.8,4.3 -108.8,8.7 -15.2,2.2 -29.4,1.1 -44.6,4.4 -10.9,1.1 -21.8,6.5 -28.3,15.2 -3.3,3.3 1.1,8.7 0,13.1 -1.1,2.2 -4.3,5.4 -5.4,7.6 -2.2,6.5 3.3,13.1 3.3,19.6 0,4.4 -1.1,7.6 0,12 1.1,3.3 5.4,5.5 7.6,4.4 10.9,0 21.8,0 32.6,-3.3 25,-6.5 48.9,-9.8 74,-14.1 14.1,-3.3 28.3,-2.2 42.4,-5.4 3.3,-1.1 7.6,-1.1 10.9,-1.1 47.9,-3.3 94.6,-6.5 142.5,-9.8 42.4,-3.3 82.7,-8.7 125.1,-15.2 46.8,-6.5 91.5,-6.3 137,-10.9 10.8,-1.3 20.6,-2.4 31.5,-3.5 z M 114.1,83.6 c -2.2,-4.3 -7.6,-4.3 -10.9,-7.6 -1.1,0 -3.3,0 -4.3,0 -6.5,3.3 -10.9,7.6 -17.4,9.8 1.1,16.3 5.4,32.6 8.7,48.9 6.5,0 8.7,-5.4 14.1,-7.6 7.6,-4.3 7.6,-14.1 9.8,-21.8 1.1,-1.1 2.2,-3.3 3.3,-4.3 1.1,-3.3 -0.2,-7 -2.2,-10.9 -1.1,-2.2 -1.1,-4.3 -1.1,-6.5 z m 163.1,118.5 c -15.2,3.3 -29.4,14.1 -44.6,6.5 -13.1,-6.5 -14.1,10.9 -10.9,20.7 10.9,-2.2 21.8,0 33.7,-3.3 8.7,-1.1 15.2,4.3 21.8,7.6 0,-4.3 0,-7.6 0,-12 0,-6.4 0,-12.9 0,-19.5 z m 68.5,-35.9 c -4.3,0 -9.8,-2.2 -10.9,0 -3.3,6.5 2.2,14.1 1.1,20.7 6.5,-1.1 18.7,-1.3 16.3,-10.9 -1,-4.3 -2.1,-9.8 -6.5,-9.8 z M 362,267.4 c -5.4,-8.7 -20.7,-12 -25,-2.2 -4.3,9.8 -2.2,23.9 -3.3,35.9 7.6,1.1 9.1,-6.2 14.1,-9.8 7.7,-5.4 19.7,-13 14.2,-23.9 z m 497.1,-89.2 c -1.1,-5.4 -5.4,-19.6 -9.8,-16.3 -8.7,6.5 -15.2,18.5 -15.2,29.4 -1.1,5.4 0,12 0,17.4 1.1,10.9 0,21.8 3.3,31.5 1.1,2.2 2.2,6.5 4.4,8.7 0,2.2 1.1,5.4 1.1,7.6 2.2,4.4 5.4,9.8 9.8,13.1 4.4,-5.4 7.6,-10.9 8.7,-16.3 3.3,-12 -2.2,-23.9 -2.2,-35.9 -0.1,-13.1 2.1,-26.1 -0.1,-39.2 z"
       id="path48"
       style="fill:#c20000" /><path
       d="M 1086.9,103.9 V 83 h 17.9 c 1.7,0 2.9,0.3 3.6,1 0.7,0.6 1.1,1.7 1.1,3.1 V 92 c 0,1.4 -0.4,2.4 -1.1,3.1 -0.7,0.7 -2,1 -3.6,1 h -2.7 l 9.6,7.9 h -7 l -8.4,-7.9 h -4.6 v 7.9 z m 15.7,-17.3 h -10.9 v 5.8 h 10.9 c 0.8,0 1.4,-0.1 1.7,-0.4 0.3,-0.2 0.5,-0.7 0.5,-1.3 v -2.5 c 0,-0.6 -0.2,-1 -0.5,-1.3 -0.3,-0.2 -0.9,-0.3 -1.7,-0.3 z"
       id="path50"
       style="fill:#c20000" /><path
       d="m 1121.1,93.6 c 0,12.6 -10.2,22.7 -22.7,22.7 -12.6,0 -22.8,-10.2 -22.8,-22.7 0,-12.5 10.2,-22.7 22.8,-22.7 12.6,-0.1 22.7,10.1 22.7,22.7 z m -22.7,-17.3 c -9.6,0 -17.5,7.8 -17.5,17.5 0,9.6 7.8,17.5 17.5,17.5 9.6,0 17.4,-7.8 17.4,-17.5 0,-9.7 -7.8,-17.5 -17.4,-17.5 z"
       id="path52"
       style="fill:#c20000" /></g></svg>